<svg width="18" height="18" viewBox="0 0 18 18" fill="none" xmlns="http://www.w3.org/2000/svg">
<path d="M17.4414 8.55792C17.3924 8.55792 17.3487 8.55792 17.3053 8.55792C16.5633 8.55792 15.8211 8.55693 15.0791 8.55891C14.9651 8.55924 14.8497 8.56452 14.7372 8.58186C14.383 8.63619 14.1556 8.8375 14.0732 9.19056C13.9661 9.64865 13.961 10.1092 14.0796 10.565C14.1805 10.9526 14.4255 11.1506 14.8257 11.175C15.0686 11.1897 15.3126 11.1874 15.5562 11.1881C16.1396 11.1897 16.7228 11.1886 17.3061 11.1886C17.3496 11.1886 17.3932 11.1886 17.4429 11.1886C17.4429 11.6017 17.4429 12.0038 17.4429 12.4131C17.419 12.4159 17.3945 12.421 17.3701 12.421C16.5136 12.4212 15.6571 12.4259 14.8007 12.4187C14.2917 12.4144 13.8254 12.2722 13.4345 11.9282C13.0653 11.6032 12.8742 11.1806 12.7886 10.7065C12.6646 10.0192 12.6634 9.33258 12.8867 8.6646C13.149 7.88019 13.7149 7.45546 14.5239 7.35109C14.6988 7.32863 14.8772 7.3288 15.0541 7.32814C15.8035 7.32583 16.5529 7.32715 17.3023 7.32715C17.3461 7.32715 17.39 7.32715 17.4414 7.32715C17.4414 7.73586 17.4414 8.13764 17.4414 8.55792Z" fill="white"/>
<path d="M11.8501 12.4162C11.3668 12.4162 10.896 12.4162 10.4114 12.4162C10.4114 12.37 10.4114 12.3269 10.4114 12.2838C10.4114 10.8163 10.4114 9.34877 10.4114 7.88136C10.4114 7.50815 10.3434 7.44011 9.97364 7.44011C9.81221 7.44011 9.65061 7.44011 9.48358 7.44011C9.48358 6.96385 9.48358 6.4985 9.48358 6.03314C9.48934 6.02868 9.4951 6.02026 9.50069 6.02026C9.95422 6.0224 10.4101 5.9831 10.859 6.07541C11.444 6.19563 11.7201 6.48958 11.803 7.08127C11.8302 7.27514 11.8475 7.47215 11.8478 7.66783C11.8514 9.22046 11.8499 10.7732 11.8501 12.3259C11.8501 12.3516 11.8501 12.3774 11.8501 12.4162Z" fill="white"/>
<path d="M17.4433 18H0V0H17.4433V5.22099H16.1269V1.3211H1.31648V16.6789H16.1269V14.5871H17.4433V18Z" fill="white"/>
</svg>
