<svg width="66" height="18" viewBox="0 0 66 18" fill="none" xmlns="http://www.w3.org/2000/svg">
<path d="M17.5682 0.442885C16.8207 0.440262 16.4151 0.455656 16.5494 0.48422C17.1646 0.615097 17.1489 0.508327 17.1232 3.99284C17.0987 7.31945 17.1009 7.29688 16.6856 7.36043C16.571 7.37795 16.7041 7.40188 16.9822 7.41392C17.2604 7.42596 17.8906 7.46196 18.3827 7.49173C19.8252 7.57897 20.0289 7.57516 20.5832 7.45768C22.5543 7.04 23.7845 5.07953 23.3527 3.04456C23.1679 2.17392 22.4876 1.24876 21.7649 0.887844C21.0505 0.531025 20.7176 0.487491 18.4216 0.45261C18.1034 0.447779 17.8174 0.443758 17.5682 0.442885ZM18.8155 0.656854C19.8504 0.630749 21.0315 1.04853 21.6725 1.69996C22.6667 2.71025 22.9374 4.4167 22.312 5.73863C22.0578 6.276 21.4742 6.80897 20.8896 7.03704C20.0666 7.35813 18.3988 7.30823 18.0423 6.95194C17.9805 6.89013 17.9548 5.97005 17.9548 3.81534V0.766271L18.3827 0.695758C18.5226 0.673307 18.6677 0.660583 18.8155 0.656854Z" fill="white"/>
<path d="M43.2769 7.49822C42.7555 7.34002 42.7368 7.30889 42.7368 6.60126C42.7368 6.24155 42.7718 5.92559 42.8146 5.89914C42.8613 5.87031 42.8925 5.96972 42.8927 6.14742C42.8933 6.81177 43.4584 7.26077 44.2937 7.26077C44.8442 7.26077 45.1387 7.13219 45.4135 6.77195C45.6574 6.45215 45.735 5.99231 45.6182 5.55862C45.5215 5.19954 45.2514 4.90083 44.0455 3.81973C43.2478 3.10457 42.9702 2.63243 42.9702 1.99101C42.9702 0.947931 43.6324 0.310046 44.7209 0.304727C45.5787 0.300533 46.1812 0.402674 46.1273 0.543151C46.1026 0.607358 46.079 0.893366 46.0747 1.17873C46.0672 1.67332 46.0635 1.6832 45.9949 1.39023C45.8652 0.836812 45.4628 0.569356 44.7598 0.569356C43.9639 0.569356 43.5157 0.964356 43.5151 1.6664C43.5148 2.13986 43.7732 2.5161 44.5263 3.13857C45.789 4.18215 46.1 4.55974 46.242 5.22189C46.4355 6.12447 46.03 6.95255 45.2028 7.34389C44.7886 7.53983 44.6334 7.57094 44.0984 7.56525C43.7561 7.56161 43.3864 7.53144 43.2769 7.49822Z" fill="white"/>
<path d="M48.3982 7.45215C47.9579 7.3115 47.9263 7.22437 48.0186 6.40487C48.0548 6.08392 48.0891 5.92406 48.0949 6.04963C48.1151 6.48636 48.3976 6.92636 48.7749 7.10905C49.2641 7.34584 50.0704 7.30486 50.4171 7.02559C50.7358 6.76882 50.9065 6.39937 50.9065 5.9666C50.9065 5.4402 50.7196 5.13316 50.0214 4.51283C48.5904 3.24144 48.3236 2.89193 48.229 2.16438C48.1693 1.70515 48.2591 1.35422 48.5403 0.948428C48.9391 0.373015 49.6721 0.193474 50.926 0.364057L51.3734 0.424918L51.3681 1.02233C51.3639 1.50592 51.3478 1.58267 51.2838 1.42522C50.9925 0.708382 50.733 0.548825 49.9182 0.585597C49.4219 0.607996 49.3306 0.636994 49.1195 0.83928C48.6609 1.27863 48.6491 1.99053 49.0917 2.51656C49.204 2.64995 49.6363 3.03484 50.0525 3.37187C51.1875 4.29104 51.529 4.80824 51.529 5.6081C51.529 6.35826 51.1974 6.92811 50.5351 7.31627C50.2269 7.49686 50.0737 7.53032 49.471 7.54857C49.0026 7.56275 48.6434 7.53047 48.3982 7.45215Z" fill="white"/>
<path d="M12.9183 6.07655C12.1594 5.29428 10.9514 4.00048 10.234 3.20144C9.51656 2.40241 8.90084 1.74591 8.86573 1.74256C8.78576 1.73494 8.87969 6.04564 8.97312 6.67117C9.01098 6.9246 9.07724 7.16725 9.12038 7.21038C9.16351 7.25352 9.34831 7.31314 9.53103 7.34287C9.73607 7.37622 9.44623 7.39673 8.77396 7.39642C8.17484 7.3961 7.8072 7.37426 7.95698 7.3478C8.40207 7.26916 8.41449 7.16613 8.41943 3.50903C8.4229 0.945081 8.44426 0.271065 8.52108 0.301303C8.57458 0.322358 9.84104 1.66912 11.3354 3.29411C12.8298 4.9191 14.0641 6.23709 14.0782 6.22298C14.0923 6.20887 14.0749 4.98211 14.0394 3.49685C13.9676 0.482171 13.9961 0.615649 13.3992 0.498625C13.1347 0.446751 13.3095 0.430671 14.1427 0.430242C14.8425 0.429853 15.139 0.451665 14.9719 0.491171C14.8288 0.524991 14.6713 0.593156 14.6217 0.642649C14.557 0.707346 14.5256 1.68282 14.5099 4.11342C14.4931 6.7075 14.466 7.49475 14.3931 7.49653C14.341 7.49782 13.6773 6.85882 12.9183 6.07655Z" fill="white"/>
<path d="M32.6219 7.41639C32.1297 7.39067 31.8221 7.36264 31.9383 7.3541C32.3406 7.32454 32.3495 7.2492 32.3495 3.88882V0.78918L32.1658 0.640368C32.0648 0.558522 31.8722 0.484006 31.7379 0.474779C31.5722 0.4634 35.0056 0.369799 35.3972 0.37502C35.4044 0.375097 35.3853 0.637715 35.3547 0.958573C35.3078 1.45158 35.29 1.50403 35.2399 1.29715C35.1298 0.841961 34.9622 0.767657 33.9757 0.736338L33.0887 0.708184V3.52604H34.0457C34.6789 3.52604 35.0339 3.49487 35.0948 3.43396C35.2465 3.28228 35.2655 3.38737 35.2038 4.03594C35.1507 4.59351 35.1391 4.62567 35.086 4.36341C35.0537 4.20345 34.9636 4.03856 34.886 3.99699C34.8083 3.95542 34.3693 3.89714 33.9105 3.86747L33.0763 3.81354L33.1019 5.29198C33.1211 6.39705 33.1545 6.80272 33.2339 6.89833C33.4058 7.10514 33.8927 7.19416 34.534 7.13604C35.2067 7.07509 35.3763 6.97209 35.546 6.52161L35.6632 6.21038L35.6217 6.70026C35.5531 7.50909 35.5715 7.49671 34.467 7.47868C33.9443 7.47014 33.114 7.44211 32.6219 7.41639Z" fill="white"/>
<path d="M38.0684 7.41639C37.5762 7.39067 37.2686 7.36264 37.3848 7.3541C37.7871 7.32454 37.7961 7.2492 37.7961 3.88882V0.78918L37.6124 0.640368C37.5113 0.558522 37.3188 0.484006 37.1844 0.474779C37.0188 0.4634 40.4521 0.369799 40.8437 0.37502C40.8509 0.375097 40.8318 0.637715 40.8013 0.958573C40.7543 1.45158 40.7365 1.50403 40.6864 1.29715C40.5744 0.834149 40.4103 0.763882 39.4414 0.763882H38.5741L38.5316 3.52604H39.4333C39.9307 3.52604 40.4055 3.48832 40.4922 3.44192C40.5786 3.39566 40.6639 3.37236 40.6817 3.39015C40.6995 3.40793 40.6898 3.69963 40.6602 4.03836C40.6095 4.6197 40.6025 4.63778 40.5353 4.36086C40.4962 4.1995 40.4028 4.03462 40.3277 3.99445C40.2526 3.95428 39.8186 3.89732 39.3632 3.86788L38.5352 3.81434L38.5396 5.12907C38.5449 6.72378 38.6016 6.94592 39.0392 7.08923C39.4404 7.22058 40.5006 7.13822 40.721 6.95858C40.8058 6.88942 40.928 6.69278 40.9925 6.52161L41.1098 6.21038L41.0682 6.70026C40.9996 7.50909 41.018 7.49671 39.9136 7.47868C39.3908 7.47014 38.5605 7.44211 38.0684 7.41639Z" fill="white"/>
<path d="M54.0189 7.41638C53.5267 7.39066 53.2161 7.36263 53.3285 7.35409C53.7457 7.32242 53.7447 7.3298 53.7693 3.98083L53.7921 0.880212L53.5978 0.685879C53.4825 0.570542 53.2992 0.484473 53.1471 0.474146C53.006 0.464576 53.766 0.438316 54.8358 0.415791C55.9057 0.393265 56.7905 0.378472 56.8021 0.382918C56.8136 0.387361 56.7996 0.644041 56.7709 0.953312L56.7186 1.51562L56.6188 1.22533C56.5639 1.06567 56.4729 0.906303 56.4166 0.871179C56.248 0.76607 55.728 0.713761 55.1082 0.739571L54.5246 0.763871L54.4821 3.52602H55.3838C55.8812 3.52602 56.356 3.48831 56.4427 3.44191C56.5291 3.39565 56.6176 3.37554 56.6392 3.39722C56.6609 3.4189 56.6498 3.7106 56.6146 4.04543C56.5752 4.42 56.5405 4.55636 56.5246 4.39984C56.486 4.02196 56.2785 3.93024 55.322 3.8684L54.4857 3.81433L54.4901 5.12906C54.4928 5.93212 54.5306 6.54967 54.5873 6.71584C54.7156 7.09147 55.0858 7.20918 55.9121 7.1371C56.6154 7.07575 56.866 6.92197 56.9803 6.48146C57.0352 6.26983 57.0428 6.32753 57.0152 6.74453C56.9957 7.03832 56.9395 7.32717 56.8903 7.38644C56.7947 7.50162 55.8401 7.51157 54.0189 7.41638Z" fill="white"/>
<path d="M63.746 6.17867C63.01 5.43374 61.7773 4.1295 61.0066 3.28036C60.2358 2.43121 59.5865 1.73646 59.5636 1.73646C59.4987 1.73646 59.6248 6.48395 59.6987 6.82278C59.7808 7.19983 59.8512 7.26983 60.2201 7.34123C60.4045 7.37695 60.1207 7.39717 59.4654 7.39498C58.8877 7.39305 58.5287 7.37736 58.6678 7.3601C58.8238 7.34074 58.9578 7.26358 59.0179 7.15859C59.0906 7.03144 59.1213 6.13556 59.1393 3.614L59.1633 0.239563L59.3629 0.423909C59.4727 0.525299 60.7175 1.85998 62.129 3.38986C63.5406 4.91974 64.718 6.17146 64.7454 6.17146C64.8728 6.17146 64.7062 0.87026 64.5732 0.689063C64.5241 0.622211 64.3264 0.536752 64.1338 0.499151C63.8601 0.44571 64.013 0.430388 64.8341 0.428952C65.571 0.42766 65.8148 0.447875 65.6511 0.496682C65.2174 0.626 65.2237 0.575247 65.2154 3.98829C65.2111 5.72396 65.1798 7.23159 65.1458 7.33857C65.0873 7.52284 65.0135 7.46172 63.746 6.17867Z" fill="white"/>
<path d="M3.56287 0.287282C3.46636 0.295741 3.28456 0.778019 2.3058 3.47251C1.72761 5.06425 1.19053 6.50602 1.11438 6.67719C0.936163 7.07782 0.714452 7.27044 0.350898 7.34099C0.171124 7.37587 0.476682 7.39872 1.14842 7.39934C1.85636 7.39996 2.146 7.3789 1.97512 7.33855C1.66317 7.26491 1.56723 7.13702 1.62499 6.87171C1.72665 6.40478 2.30819 4.72563 2.38604 4.67366C2.50082 4.59703 4.31449 4.60148 4.43577 4.67852C4.48837 4.71194 4.73725 5.27913 4.99015 5.94046C5.32699 6.82128 5.43185 7.18045 5.37918 7.2802C5.31245 7.40658 5.37462 7.41632 6.26181 7.40907C7.03197 7.40277 7.15727 7.38707 6.90858 7.32883C6.28118 7.1819 6.22443 7.07395 4.7543 3.22936C4.15388 1.6592 3.63433 0.345856 3.59935 0.309166C3.58695 0.296159 3.57666 0.286074 3.56287 0.287282ZM3.39753 1.68295C3.45934 1.70355 4.3694 4.16211 4.37499 4.32353C4.3761 4.35562 3.94596 4.38188 3.41699 4.38188H2.45412L2.88936 3.02026C3.12909 2.27124 3.35802 1.66978 3.39753 1.68295Z" fill="white"/>
<path d="M25.3489 0.438065C24.7812 0.441504 24.5049 0.458841 24.6413 0.486694C24.809 0.520933 24.9876 0.607021 25.0401 0.67878C25.2627 0.983238 25.2906 6.64108 25.0717 7.11975C25.0039 7.26805 24.905 7.33885 24.7337 7.36047C24.6005 7.37729 25.0158 7.39169 25.6577 7.39208C26.2996 7.39247 26.6687 7.37155 26.4771 7.34588C25.9735 7.2784 25.9338 7.156 25.9325 5.68518L25.93 4.45972H27.2552L27.6223 4.98006C28.3051 5.94202 29.1802 7.00249 29.4435 7.19027C29.6776 7.35724 29.7926 7.3782 30.5596 7.38965C31.1374 7.39827 31.3017 7.38595 31.0653 7.34831C30.3671 7.23714 30.0109 6.92574 28.7384 5.31803L27.8995 4.25791L28.1694 3.94911C29.3307 2.62145 29.2705 1.187 28.0308 0.615562C27.7148 0.469878 27.5178 0.453771 26.0078 0.440496C25.7584 0.438302 25.5381 0.436913 25.3489 0.438065ZM26.6425 0.647171C27.683 0.652431 28.3278 1.45746 28.2497 2.73824C28.2126 3.34628 28.0251 3.77508 27.6953 4.0099C27.4599 4.17753 26.8016 4.26689 26.4358 4.1801C26.3502 4.1598 26.2014 4.12527 26.1051 4.10473C25.9302 4.0674 25.93 4.06537 25.93 2.40513V0.74443L26.1732 0.695801C26.337 0.663029 26.4938 0.64642 26.6425 0.647171Z" fill="white"/>
<path d="M15.2102 10.4724C14.4162 10.4796 13.6334 10.6925 13.0583 11.1143C12.5709 11.4719 12.0237 12.1769 11.8231 12.7069C11.0292 14.8052 12.0655 17.0771 14.0795 17.655C14.6406 17.816 16.0441 17.7551 16.5767 17.5456C17.5333 17.1692 18.389 16.2421 18.6921 15.2527C18.926 14.489 18.9244 13.3324 18.6896 12.6802C18.4963 12.1432 18.0854 11.5613 17.6684 11.231C17.0233 10.7201 16.11 10.4643 15.2102 10.4724ZM14.8601 10.7691C14.9714 10.7682 15.0985 10.7701 15.254 10.7763C15.8925 10.8019 16.0514 10.8372 16.4113 11.0341C17.6816 11.729 18.3145 13.4547 17.9432 15.2065C17.7275 16.224 17.2784 16.8369 16.46 17.2295C16.067 17.4179 15.9008 17.4515 15.4096 17.4459C15.0886 17.4422 14.7385 17.4129 14.6315 17.3802C13.5725 17.0569 12.7564 16.0821 12.4894 14.8223C12.1094 13.0297 12.7589 11.4079 14.0552 10.9198C14.3453 10.8106 14.5261 10.7718 14.8601 10.7691Z" fill="white"/>
<path d="M30.3826 10.4724C29.5886 10.4796 28.8058 10.6925 28.2307 11.1143C27.7433 11.4719 27.1961 12.1769 26.9956 12.7069C26.2017 14.8052 27.2379 17.0771 29.252 17.655C29.813 17.816 31.2165 17.7551 31.7491 17.5456C32.7057 17.1692 33.5614 16.2421 33.8645 15.2527C34.0984 14.489 34.0968 13.3324 33.862 12.6802C33.6687 12.1432 33.2578 11.5613 32.8408 11.231C32.1957 10.7201 31.2824 10.4643 30.3826 10.4724ZM30.0325 10.7691C30.1438 10.7682 30.2709 10.7701 30.4264 10.7763C31.0649 10.8019 31.2238 10.8372 31.5837 11.0341C32.854 11.729 33.4869 13.4547 33.1156 15.2065C32.8999 16.224 32.4508 16.8369 31.6324 17.2295C31.2394 17.4179 31.0732 17.4515 30.582 17.4459C30.261 17.4422 29.9109 17.4129 29.8039 17.3802C28.7449 17.0569 27.9288 16.0821 27.6618 14.8223C27.2818 13.0297 27.9313 11.4079 29.2276 10.9198C29.5177 10.8106 29.6985 10.7718 30.0325 10.7691Z" fill="white"/>
<path d="M37.1555 17.6671C37.1359 17.6136 36.7848 16.4494 36.3752 15.08C35.3212 11.5553 35.1852 11.1304 35.0579 10.9643C34.9957 10.8832 34.7773 10.7718 34.5726 10.7167C34.2278 10.624 34.2889 10.6171 35.4065 10.623C36.0698 10.6266 36.5188 10.6438 36.4043 10.6613C36.0562 10.7146 35.9965 10.8549 36.0993 11.378C36.1965 11.8718 37.4204 16.3029 37.4747 16.3572C37.4926 16.3751 37.5197 16.3752 37.5349 16.3574C37.5501 16.3396 38.0224 15.0842 38.5843 13.5677C39.5523 10.9556 39.704 10.5983 39.8029 10.6972C39.8258 10.7201 40.2843 11.9955 40.8216 13.5314C41.359 15.0673 41.8135 16.3388 41.8316 16.3569C41.8497 16.375 41.8799 16.3745 41.8986 16.3557C42.0034 16.2509 43.4207 11.3335 43.4207 11.0747C43.4207 10.8162 43.3916 10.7585 43.2456 10.7274C43.1493 10.7068 43.0005 10.6752 42.9149 10.6571C42.8293 10.639 43.232 10.6237 43.8097 10.6231C44.4242 10.6225 44.7604 10.6459 44.6199 10.6795C44.4878 10.7111 44.3383 10.7625 44.2877 10.7938C44.0868 10.9179 43.787 11.7028 42.8437 14.5743C42.3024 16.2219 41.825 17.6224 41.7827 17.6866C41.7157 17.7884 41.6925 17.7857 41.6003 17.6654C41.5422 17.5896 41.2469 16.8193 40.944 15.9537C40.6411 15.088 40.2119 13.861 39.9903 13.2269C39.7688 12.5928 39.5592 12.1026 39.5247 12.1376C39.4901 12.1726 39.0198 13.3894 38.4796 14.8416C37.9394 16.2938 37.4634 17.5455 37.4218 17.6232C37.3343 17.7866 37.2071 17.8076 37.1555 17.6671Z" fill="white"/>
<path d="M56.9963 17.6062C56.969 17.5619 57.2707 17.028 57.6668 16.4196C59.7293 13.2519 61.0982 11.1235 61.1355 11.0263C61.1698 10.9368 61.02 10.918 60.2936 10.9208C59.8076 10.9226 59.0464 10.9543 58.602 10.9911C57.8553 11.0529 57.7768 11.0752 57.5665 11.2855C57.4414 11.4107 57.29 11.6504 57.2302 11.8182C57.096 12.1949 57.0894 12.0693 57.2014 11.2675L57.2883 10.6451L59.7108 10.6713C61.0431 10.6857 62.1432 10.7074 62.1555 10.7195C62.1677 10.7315 61.2311 12.201 60.0741 13.985C58.9172 15.769 57.9705 17.2442 57.9705 17.2631C57.9705 17.317 61.1117 17.3035 61.3871 17.2484C61.7105 17.1837 62.0832 16.8281 62.1434 16.5267C62.1699 16.3944 62.2261 16.2861 62.2683 16.2861C62.3448 16.2861 62.3283 16.4426 62.1637 17.2781L62.0833 17.6866H59.5647C57.9145 17.6866 57.0289 17.6589 56.9963 17.6062Z" fill="white"/>
<path d="M3.85359 17.5408C4.27225 17.4511 4.28123 17.3784 4.28248 14.064C4.28335 11.7524 4.26034 10.9938 4.18637 10.895C4.13287 10.8236 3.94906 10.7329 3.77788 10.6934C3.54197 10.6391 3.74908 10.6218 4.63376 10.6219C5.40102 10.622 5.70887 10.6437 5.53234 10.6853C5.08985 10.7894 5.0617 10.8857 5.0617 12.2939V13.5628H9.18548V12.2939C9.18548 11.4012 9.15663 10.9856 9.08822 10.8924C9.03473 10.8195 8.8334 10.7291 8.64083 10.6915C8.37431 10.6395 8.56943 10.6227 9.4578 10.6213C10.2632 10.6201 10.5526 10.6411 10.3916 10.6891C10.2632 10.7273 10.1144 10.8186 10.0609 10.8918C9.9202 11.0842 9.92288 17.0177 10.0638 17.2975C10.1391 17.4471 10.2422 17.5028 10.51 17.5387C10.7016 17.5644 10.3331 17.5854 9.6912 17.5854C9.0493 17.5854 8.61782 17.5711 8.73237 17.5536C9.12476 17.4936 9.14465 17.4039 9.17145 15.574L9.19636 13.874H5.0617V15.4186C5.0617 17.4051 5.07605 17.4489 5.76196 17.5569C5.86895 17.5738 5.43128 17.5882 4.78937 17.589C4.14746 17.5897 3.72636 17.5681 3.85359 17.5408Z" fill="white"/>
<path d="M21.0531 10.6159C20.1726 10.6212 19.6924 10.6474 19.8689 10.6815C20.4539 10.7947 20.4282 10.6345 20.4282 14.0904C20.4282 17.4274 20.4205 17.4921 20.0197 17.5529C19.902 17.5707 20.3134 17.5863 20.9339 17.5869C21.5544 17.5874 21.9746 17.5746 21.8676 17.5577C21.4005 17.4841 21.3355 17.4458 21.2524 17.2076C21.205 17.0716 21.1673 16.4465 21.1673 15.8046V14.6472L22.529 14.691L22.918 15.2284C23.8544 16.5218 24.5167 17.2963 24.8194 17.4507C25.0727 17.58 25.2678 17.6065 25.8917 17.5991C26.5577 17.591 26.6056 17.5814 26.2759 17.5261C26.0685 17.4913 25.7686 17.3784 25.6096 17.2732C25.2823 17.0566 24.5821 16.2847 23.7204 15.1943L23.1344 14.4527L23.4748 14.0661C24.4143 12.9984 24.5206 11.878 23.7544 11.1313C23.3061 10.6944 22.836 10.6051 21.0531 10.6159ZM21.9624 10.8444C22.5645 10.8624 23.0009 11.1416 23.2852 11.6857C23.4719 12.0431 23.5016 12.1932 23.5016 12.7385C23.5016 13.4561 23.3198 13.9371 22.9423 14.212C22.7479 14.3537 22.0329 14.4649 21.8287 14.3846C21.7859 14.3678 21.6196 14.3312 21.4591 14.3044L21.1673 14.2558V10.9271L21.5175 10.8736C21.6742 10.8501 21.8235 10.8403 21.9624 10.8444Z" fill="white"/>
<path d="M46.2335 17.5538C46.6285 17.4932 46.6497 17.3123 46.6488 14.0175C46.648 11.2042 46.6387 10.9995 46.5045 10.8512C46.4256 10.7639 46.2509 10.6787 46.1163 10.6618C45.9817 10.6449 46.3793 10.629 46.9998 10.6266C47.7103 10.6237 48.0317 10.6448 47.8679 10.6836C47.7248 10.7174 47.5673 10.7856 47.5178 10.8352C47.4525 10.9004 47.4277 11.7909 47.4277 14.0644C47.4277 17.0132 47.4365 17.2132 47.5721 17.363C47.6516 17.4508 47.8441 17.5361 48.0001 17.5526C48.156 17.5691 47.7759 17.5833 47.1554 17.584C46.5349 17.5848 46.12 17.5712 46.2335 17.5538Z" fill="white"/>
<path d="M51.6116 17.5529C51.7342 17.5343 51.8852 17.4318 51.9617 17.3151C52.0834 17.1294 52.0961 16.8175 52.0961 14.0331V10.9563L51.1142 10.9676C50.0377 10.98 49.8725 11.0294 49.6413 11.4086C49.4958 11.6473 49.4905 11.6493 49.4974 11.462C49.5013 11.355 49.5456 11.0924 49.5958 10.8784C49.6792 10.5225 49.7034 10.4927 49.8801 10.5283C49.9863 10.5497 51.2549 10.5672 52.6992 10.5672H55.3252L55.3207 11.1508C55.3165 11.7051 55.3117 11.7207 55.2235 11.4629C55.0938 11.0841 54.8663 11.0026 53.7733 10.9439L52.827 10.893L52.8506 14.0483C52.8726 16.994 52.8838 17.2142 53.0186 17.3631C53.098 17.4508 53.2906 17.5361 53.4465 17.5526C53.6025 17.5691 53.2049 17.5832 52.563 17.584C51.9211 17.5848 51.4929 17.5708 51.6116 17.5529Z" fill="white"/>
</svg>
