<svg width="65" height="8" viewBox="0 0 65 8" fill="none" xmlns="http://www.w3.org/2000/svg">
<path d="M6.34347 2.07948C6.34347 1.79955 6.28642 1.53628 6.17231 1.28968C6.05821 1.04307 5.88705 0.833125 5.65884 0.659835C5.40211 0.46655 5.11329 0.329918 4.79237 0.249938C4.47858 0.169958 4.15766 0.129968 3.82962 0.129968H0V0.59985H1.00554V6.51837H0V6.98825C0.584783 6.96825 1.17313 6.95826 1.76505 6.95826C2.34983 6.95826 2.93818 6.96825 3.53009 6.98825V6.51837H2.52455V3.979H3.82962C4.15766 3.979 4.47858 3.94235 4.79237 3.86903C5.11329 3.78905 5.40211 3.65242 5.65884 3.45913C5.87992 3.29251 6.04751 3.08923 6.16162 2.84929C6.28285 2.60268 6.34347 2.34608 6.34347 2.07948ZM4.70679 2.07948C4.70679 2.17945 4.70322 2.28276 4.69609 2.3894C4.69609 2.49604 4.68896 2.59935 4.6747 2.69932C4.66757 2.7993 4.64974 2.89261 4.62121 2.97925C4.59982 3.0659 4.56416 3.13588 4.51424 3.1892C4.38587 3.3425 4.22185 3.44247 4.02217 3.48913C3.82248 3.53578 3.61924 3.55911 3.41242 3.55911H2.47106V0.59985H3.41242C3.61924 0.59985 3.82248 0.623177 4.02217 0.669832C4.22185 0.716488 4.38587 0.81313 4.51424 0.95976C4.56416 1.01308 4.59982 1.08306 4.62121 1.16971C4.64974 1.25635 4.66757 1.35299 4.6747 1.45963C4.68896 1.55961 4.69609 1.66292 4.69609 1.76956C4.70322 1.8762 4.70679 1.9795 4.70679 2.07948Z" fill="white"/>
<path d="M14.3623 3.5991C14.3623 3.11922 14.291 2.656 14.1484 2.20945C14.0129 1.75623 13.774 1.35299 13.4316 0.99975C13.1107 0.6665 12.7328 0.419895 12.2977 0.259935C11.8699 0.0999752 11.4206 0.0199954 10.9499 0.0199954C10.4792 0.0199954 10.0264 0.0999752 9.59134 0.259935C9.16345 0.419895 8.78904 0.6665 8.46813 0.99975C8.12581 1.35299 7.88334 1.75623 7.74071 2.20945C7.60522 2.656 7.53747 3.11922 7.53747 3.5991C7.53747 4.06565 7.60878 4.5222 7.75141 4.96875C7.89404 5.40864 8.13294 5.80188 8.46813 6.14846C8.78904 6.46838 9.16345 6.70832 9.59134 6.86828C10.0264 7.02157 10.4792 7.09822 10.9499 7.09822C11.4206 7.09822 11.8699 7.02157 12.2977 6.86828C12.7328 6.70832 13.1107 6.46838 13.4316 6.14846C13.7668 5.80188 14.0057 5.40864 14.1484 4.96875C14.291 4.5222 14.3623 4.06565 14.3623 3.5991ZM12.7256 3.41914C12.7256 3.83237 12.7078 4.24227 12.6721 4.64884C12.6365 5.0554 12.5188 5.44197 12.3191 5.80854C12.1765 6.06181 11.9875 6.27176 11.7522 6.43839C11.5168 6.59835 11.2494 6.67833 10.9499 6.67833C10.6504 6.67833 10.3829 6.59835 10.1476 6.43839C9.91225 6.27176 9.72327 6.06181 9.58064 5.80854C9.38096 5.44197 9.26329 5.0554 9.22763 4.64884C9.19197 4.24227 9.17414 3.83237 9.17414 3.41914C9.17414 3.03924 9.19197 2.66267 9.22763 2.28943C9.26329 1.91619 9.38096 1.55961 9.58064 1.21969C9.72327 0.98642 9.91225 0.796467 10.1476 0.649838C10.3901 0.496543 10.6575 0.419895 10.9499 0.419895C11.2423 0.419895 11.5061 0.496543 11.7415 0.649838C11.984 0.796467 12.1765 0.98642 12.3191 1.21969C12.5188 1.55961 12.6365 1.91619 12.6721 2.28943C12.7078 2.66267 12.7256 3.03924 12.7256 3.41914Z" fill="white"/>
<path d="M20.9197 4.24894H20.417C20.3813 4.55553 20.3278 4.86211 20.2565 5.1687C20.1923 5.46863 20.0568 5.73523 19.85 5.9685C19.6931 6.14179 19.5077 6.27843 19.2937 6.3784C19.0869 6.47171 18.8623 6.51837 18.6198 6.51837H17.8496V0.59985H19.1119V0.129968C18.4344 0.149963 17.7605 0.15996 17.0901 0.15996C16.4982 0.15996 15.9098 0.149963 15.3251 0.129968V0.59985H16.3306V6.51837H15.3251V6.98825H20.5988L20.9197 4.24894Z" fill="white"/>
<path d="M28.3928 0.59985V0.129968C28.0363 0.149963 27.6833 0.15996 27.3338 0.15996H27.3231C26.8952 0.15996 26.4673 0.149963 26.0394 0.129968V0.59985C26.125 0.59985 26.2106 0.603182 26.2962 0.609848C26.3889 0.616513 26.4816 0.62651 26.5743 0.63984C26.6242 0.65317 26.6706 0.6665 26.7134 0.67983C26.7562 0.686495 26.7704 0.703157 26.7562 0.729817L25.0446 3.52912L23.2475 0.59985H24.0498V0.129968C23.4507 0.149963 22.8481 0.15996 22.2419 0.15996H22.2312C21.7106 0.15996 21.19 0.149963 20.6694 0.129968V0.59985H21.568L23.8037 4.24894V6.51837H22.7982V6.98825C23.3758 6.96825 23.9535 6.95826 24.5311 6.95826C25.1088 6.95826 25.6864 6.96825 26.2641 6.98825V6.51837H25.2585V4.24894L27.4087 0.729817C27.4301 0.696492 27.4693 0.676497 27.5264 0.669832C27.5834 0.656503 27.6405 0.643173 27.6975 0.629842C27.8116 0.616513 27.9257 0.609848 28.0398 0.609848C28.1539 0.603182 28.2716 0.59985 28.3928 0.59985Z" fill="white"/>
<path d="M35.6871 4.64884C35.6871 4.56219 35.6372 4.51887 35.5373 4.51887H35.3234C35.2307 4.51887 35.1843 4.56219 35.1843 4.64884C35.1843 4.9221 35.1309 5.1787 35.0239 5.41864C34.9169 5.65858 34.7707 5.86853 34.5853 6.04848C34.407 6.22844 34.1931 6.37174 33.9435 6.47838C33.701 6.57835 33.4407 6.62834 33.1626 6.62834C32.7989 6.62834 32.453 6.56169 32.1249 6.42839C31.804 6.29509 31.5401 6.09514 31.3333 5.82854C31.2121 5.67524 31.1158 5.50862 31.0445 5.32866C30.9732 5.14871 30.9197 4.96209 30.884 4.76881C30.8484 4.57552 30.8234 4.3789 30.8092 4.17895C30.802 3.97234 30.7985 3.76572 30.7985 3.55911C30.7985 3.13921 30.8234 2.73598 30.8733 2.34941C30.9304 1.95618 31.0802 1.60293 31.3226 1.28968C31.5294 1.02308 31.7933 0.823127 32.1142 0.689827C32.4423 0.556527 32.7882 0.489878 33.1519 0.489878C33.4229 0.489878 33.6725 0.54653 33.9007 0.659835C34.1289 0.77314 34.3286 0.926435 34.4997 1.11972C34.6709 1.313 34.8099 1.53961 34.9169 1.79955C35.0239 2.05282 35.0916 2.31942 35.1202 2.59935C35.1344 2.68599 35.1843 2.72932 35.2699 2.72932H35.5373C35.5801 2.72932 35.6158 2.71599 35.6443 2.68933C35.6728 2.656 35.6871 2.62268 35.6871 2.58935V0.15996C35.6871 0.0666504 35.6372 0.0199954 35.5373 0.0199954H35.4518C35.4161 0.0199954 35.384 0.0299928 35.3555 0.0499879L34.6602 0.63984C34.432 0.446555 34.1752 0.296593 33.89 0.189953C33.6047 0.0766479 33.2945 0.0199954 32.9593 0.0199954C32.453 0.0199954 31.9573 0.0966429 31.4724 0.249938C30.9946 0.403233 30.5738 0.649838 30.2101 0.989752C29.8393 1.32967 29.5718 1.72623 29.4078 2.17945C29.2438 2.62601 29.1618 3.08589 29.1618 3.55911C29.1618 4.03232 29.2438 4.49554 29.4078 4.94876C29.5718 5.39531 29.8393 5.78855 30.2101 6.12846C30.5738 6.46838 30.9946 6.71498 31.4724 6.86828C31.9573 7.02157 32.453 7.09822 32.9593 7.09822C33.3301 7.09822 33.6796 7.0349 34.0076 6.90827C34.3428 6.78163 34.6316 6.60834 34.8741 6.3884C35.1237 6.16845 35.3198 5.91185 35.4625 5.61859C35.6122 5.31867 35.6871 4.99541 35.6871 4.64884Z" fill="white"/>
<path d="M44.295 6.98825V6.51837H43.2894V0.59985H44.295V0.129968C43.7031 0.149963 43.1147 0.15996 42.5299 0.15996C41.938 0.15996 41.3497 0.149963 40.7649 0.129968V0.59985H41.7704V3.1892H39.171V0.59985H40.1765V0.129968C39.5846 0.149963 38.9963 0.15996 38.4115 0.15996C37.8196 0.15996 37.2312 0.149963 36.6464 0.129968V0.59985H37.652V6.51837H36.6464V6.98825C37.2312 6.96825 37.8196 6.95826 38.4115 6.95826C38.9963 6.95826 39.5846 6.96825 40.1765 6.98825V6.51837H39.171V3.65908H41.7704V6.51837H40.7649V6.98825C41.3497 6.96825 41.938 6.95826 42.5299 6.95826C43.1147 6.95826 43.7031 6.96825 44.295 6.98825Z" fill="white"/>
<path d="M52.3522 6.98825V6.51837H51.4536L49.0681 0.179955C49.0467 0.126635 49.0111 0.0833129 48.9611 0.0499879C48.9112 0.0166626 48.8577 0 48.8007 0H48.6081C48.5439 0 48.4869 0.0166626 48.437 0.0499879C48.3871 0.0833129 48.3514 0.126635 48.33 0.179955L45.998 6.3884C45.9837 6.42172 45.9481 6.44505 45.891 6.45838C45.8411 6.47171 45.7912 6.48171 45.7413 6.48837C45.62 6.50837 45.5024 6.51837 45.3883 6.51837C45.2813 6.51837 45.1672 6.51837 45.0459 6.51837V6.98825C45.4097 6.96825 45.7734 6.95826 46.1371 6.95826H46.1478H46.2975C46.6755 6.95826 47.0535 6.96825 47.4314 6.98825V6.51837C47.3316 6.51837 47.2318 6.51503 47.1319 6.50837C47.0321 6.5017 46.9322 6.49171 46.8324 6.47838C46.7753 6.46505 46.7183 6.45505 46.6612 6.44838C46.6042 6.43505 46.5828 6.41506 46.597 6.3884L47.057 5.1687H49.3997L49.9132 6.51837H49.0253V6.98825C49.6101 6.96825 50.1949 6.95826 50.7797 6.95826H50.7904C51.3181 6.95826 51.8387 6.96825 52.3522 6.98825ZM49.2286 4.69882H47.2389L48.2337 2.04949L49.2286 4.69882Z" fill="white"/>
<path d="M56.6726 6.98825V6.51837H55.6136V0.59985H56.6726V0.129968C56.0736 0.149963 55.4709 0.15996 54.8648 0.15996C54.2586 0.15996 53.6524 0.149963 53.0462 0.129968V0.59985H54.1053V6.51837H53.0462V6.98825C53.6524 6.96825 54.2586 6.95826 54.8648 6.95826C55.4709 6.95826 56.0736 6.96825 56.6726 6.98825Z" fill="white"/>
<path d="M65 0.59985V0.129968C64.5721 0.149963 64.1406 0.15996 63.7056 0.15996C63.2777 0.15996 62.8498 0.149963 62.422 0.129968V0.59985C62.5432 0.59985 62.668 0.59985 62.7964 0.59985C62.9247 0.59985 63.0531 0.609847 63.1815 0.629842C63.2385 0.636507 63.292 0.646505 63.3419 0.659835C63.399 0.673165 63.4275 0.696492 63.4275 0.729817V4.74881L59.8867 0.19995C59.8582 0.153295 59.8083 0.129968 59.7369 0.129968H57.3515V0.59985H58.357V6.3884C58.357 6.42172 58.3285 6.44505 58.2714 6.45838C58.2215 6.46505 58.168 6.47504 58.111 6.48837C57.9897 6.5017 57.8649 6.5117 57.7366 6.51837C57.6082 6.51837 57.4798 6.51837 57.3515 6.51837V6.98825C57.7793 6.96825 58.2108 6.95826 58.6458 6.95826C59.0737 6.95826 59.5016 6.96825 59.9295 6.98825V6.51837C59.8083 6.51837 59.6835 6.51837 59.5551 6.51837C59.4267 6.5117 59.3019 6.5017 59.1807 6.48837C59.1236 6.47504 59.0666 6.46505 59.0095 6.45838C58.9525 6.44505 58.924 6.42172 58.924 6.3884V1.08973L63.4703 6.91827C63.5059 6.96492 63.5559 6.98825 63.62 6.98825H63.8019C63.859 6.98825 63.9053 6.97159 63.941 6.93826C63.9766 6.90494 63.9945 6.86161 63.9945 6.80829V0.729817C63.9945 0.696492 64.0194 0.673165 64.0693 0.659835C64.1264 0.646505 64.1834 0.636507 64.2405 0.629842C64.3689 0.609847 64.4937 0.59985 64.6149 0.59985C64.7433 0.59985 64.8716 0.59985 65 0.59985Z" fill="white"/>
</svg>
