<svg width="11" height="17" viewBox="0 0 11 17" fill="none" xmlns="http://www.w3.org/2000/svg">
<path d="M8.64077 2.22106C8.63184 2.21511 8.5829 2.18005 8.50176 2.12194C8.25107 1.9424 7.69307 1.54275 7.05866 1.10141L6.97121 1.03915C6.00039 0.347864 5.51266 0.000563701 5.02452 6.85645e-07C4.53169 -0.000567748 4.03845 0.352307 3.04722 1.06145L2.95734 1.12575L1.35088 2.26974L1.67948 2.80523C1.86203 3.09731 2.04458 3.32854 2.08109 3.31637C2.12977 3.3042 2.7261 2.56182 3.40763 1.67341C4.10132 0.784989 4.68549 0.079125 4.70983 0.115635C4.74634 0.139976 4.18651 0.906691 3.48065 1.80728C2.77478 2.72004 2.19062 3.48675 2.19062 3.52326C2.19062 3.55977 2.73827 4.44819 3.4198 5.49482L4.63681 7.41769L4.25953 8.50083C4.05264 9.09717 3.89443 9.59614 3.91877 9.60831C4.28388 9.86388 4.88021 10.1681 5.02625 10.1681C5.17229 10.1681 5.71995 9.91257 6.18241 9.62048C6.19458 9.60831 6.03637 9.10934 5.82948 8.50083L5.44004 7.41769L6.40147 5.89643C6.93696 5.06886 7.49678 4.18045 7.64282 3.93705L7.92273 3.48675L6.62053 1.83162C5.91467 0.918863 5.35484 0.152147 5.37918 0.127806C5.40352 0.103466 5.98769 0.821502 6.68138 1.72209C7.59414 2.89042 7.98358 3.31637 8.09311 3.23118C8.27567 3.07297 8.70162 2.28191 8.64077 2.22106Z" fill="white"/>
<path d="M1.86203 3.63279C1.92288 3.5476 1.83769 3.26769 1.67948 2.98778C1.52126 2.72004 1.36305 2.50098 1.31437 2.50098C1.27786 2.50098 0.985779 3.24335 0.693697 4.14394C0.389445 5.04453 0.158211 5.7869 0.170381 5.7869C0.206891 5.7869 1.72816 3.85185 1.86203 3.63279Z" fill="white"/>
<path d="M9.34664 4.04658C9.62655 4.89848 9.83344 5.61652 9.8091 5.62869C9.77259 5.6652 8.40954 3.93704 8.22699 3.62062C8.1418 3.47458 8.60426 2.50098 8.77464 2.50098C8.82332 2.50098 9.0789 3.19467 9.34664 4.04658Z" fill="white"/>
<path d="M4.34473 7.32033C4.36907 7.29599 3.88226 6.4806 3.26159 5.49482C2.64091 4.52121 2.09326 3.71798 2.05675 3.71798C1.9959 3.71798 0.535486 5.53133 0.328594 5.87209C0.170383 6.12766 1.98373 6.94306 3.21291 7.17429C3.80924 7.28382 4.32039 7.34468 4.34473 7.32033Z" fill="white"/>
<path d="M9.00587 4.91065L9.88212 6.04247L8.85983 6.50494C8.05661 6.88221 6.25543 7.36901 5.68344 7.36901C5.64693 7.36901 6.1459 6.54145 6.77875 5.5435C7.42376 4.53338 7.99576 3.73015 8.04444 3.74232C8.09312 3.76666 8.53124 4.28998 9.00587 4.91065Z" fill="white"/>
<path d="M1.49692 6.76051C1.70382 6.87004 1.81335 6.99174 1.77684 7.11344C1.74032 7.22297 1.65513 7.55157 1.58211 7.85582L1.43607 8.3913L0.900586 7.42986C0.608504 6.89438 0.365103 6.41974 0.365103 6.35889C0.365103 6.2737 0.705868 6.39541 1.49692 6.76051Z" fill="white"/>
<path d="M8.61643 8.2696C8.65294 8.34262 9.73608 6.46843 9.73608 6.29804C9.73608 6.21285 8.49473 6.77268 8.28784 6.95523C8.23916 6.99174 8.5069 8.07488 8.61643 8.2696Z" fill="white"/>
<path d="M0.803227 7.53939C1.03446 7.98969 1.21701 8.3913 1.19267 8.40347C1.16833 8.42781 0.912759 8.50083 0.632847 8.56168L0.121701 8.68338V7.50289C0.121701 6.20069 0.121702 6.20068 0.803227 7.53939Z" fill="white"/>
<path d="M9.97948 8.58603V7.49072C9.97948 6.88221 9.95514 6.39541 9.9308 6.39541C9.90646 6.39541 9.62655 6.8457 9.33447 7.39335C8.78681 8.37913 8.78681 8.40347 9.04239 8.48866C9.18843 8.52517 9.45617 8.56168 9.65089 8.57385L9.97948 8.58603Z" fill="white"/>
<path d="M2.33666 8.70773C2.62874 8.79292 2.92082 8.89028 2.98167 8.92679C3.10337 8.99981 1.58211 9.29189 0.985779 9.30406C0.693696 9.31623 0.693696 9.30406 1.09531 8.89028C1.32654 8.64688 1.58211 8.48866 1.6673 8.513C1.74033 8.54951 2.04458 8.6347 2.33666 8.70773Z" fill="white"/>
<path d="M9.00587 8.89028C8.77464 8.65905 8.56775 8.47649 8.53124 8.47649C7.83754 8.64688 7.05866 8.89028 7.05866 8.95113C7.05866 9.01198 8.84766 9.31623 9.24927 9.31623C9.34663 9.31623 9.24927 9.13368 9.00587 8.89028Z" fill="white"/>
<path d="M0.791056 9.07283C0.425953 9.4501 0.292085 9.43793 0.219064 9.01198C0.194724 8.81726 0.267742 8.75641 0.608505 8.70773C0.839737 8.67122 1.0588 8.64687 1.08314 8.67121C1.11965 8.69555 0.985778 8.87811 0.791056 9.07283Z" fill="white"/>
<path d="M9.8091 9.17019C9.89429 9.01198 9.9308 8.85377 9.88212 8.81726C9.83344 8.76858 9.57787 8.70772 9.3223 8.67121L8.84766 8.5982L9.66306 9.43793L9.8091 9.17019Z" fill="white"/>
<path d="M1.82551 10.302C1.19267 10.8983 0.523316 11.5068 0.340765 11.6407L0 11.8841V11.5068C0 11.3 0.0851914 10.7766 0.194722 10.3507L0.389445 9.5718L1.26569 9.43793C1.74032 9.36491 2.19062 9.27972 2.25147 9.25538C2.32449 9.23104 2.50704 9.2067 2.67742 9.2067C2.93299 9.2067 2.81129 9.36491 1.82551 10.302Z" fill="white"/>
<path d="M3.28593 15.8881C3.32244 15.8881 3.34678 14.379 3.34678 12.5413C3.34678 10.7036 3.32244 9.19453 3.28593 9.19453C3.24942 9.19453 2.49487 9.86389 1.61863 10.6671C0.498976 11.6772 0 12.2127 0 12.3953C0 12.5656 0.547656 13.2107 1.60645 14.2695C2.49487 15.1579 3.24942 15.8881 3.28593 15.8881Z" fill="white"/>
<path d="M8.53124 10.7401C9.45617 11.5799 10.2229 12.3222 10.2229 12.3709C10.2229 12.4318 9.43183 13.2837 8.45822 14.2695L6.70572 16.0706L6.69355 12.6265C6.69355 10.7401 6.73006 9.19453 6.76658 9.19453C6.80309 9.19453 7.59414 9.88822 8.53124 10.7401Z" fill="white"/>
<path d="M9.6874 9.5718L8.95719 9.4501C7.87405 9.25538 6.98564 9.15802 7.05866 9.21887C7.07873 9.23225 7.30477 9.44057 7.64579 9.75485L7.64662 9.75561C7.92574 10.0129 8.2821 10.3413 8.66511 10.6915C9.50485 11.4703 10.2351 12.1154 10.2594 12.1154C10.2837 12.1154 10.1742 11.5434 10.0038 10.8497L9.6874 9.5718Z" fill="white"/>
</svg>
