<svg width="36" height="36" viewBox="0 0 36 36" fill="none" xmlns="http://www.w3.org/2000/svg">
<circle cx="18" cy="18" r="18" fill="#F49B33"/>
<circle cx="18" cy="18" r="18" fill="url(#paint0_linear)"/>
<path d="M26.4393 24.4852L20.5126 10.1049C20.4109 9.78809 20.2124 9.51116 19.9451 9.31299C19.6778 9.11482 19.3552 9.00536 19.0225 9H18.5012C18.1695 9.00653 17.8481 9.11653 17.582 9.31462C17.3158 9.51271 17.1182 9.789 17.0167 10.1049L14.4387 16.3715H12.4839C12.2028 16.3745 11.9342 16.4878 11.736 16.6871C11.5378 16.8864 11.4258 17.1556 11.4244 17.4367V17.448C11.4258 17.7291 11.5378 17.9983 11.736 18.1976C11.9342 18.3969 12.2028 18.5103 12.4839 18.5132H13.5321L11.0731 24.4852C11.0262 24.6162 11.0013 24.7541 10.9994 24.8932C10.9879 25.187 11.0916 25.4736 11.2884 25.6921C11.3902 25.7964 11.5131 25.8777 11.649 25.9305C11.7848 25.9832 11.9304 26.0063 12.0759 25.9981C12.2961 25.9949 12.5099 25.9237 12.6879 25.7941C12.8732 25.6553 13.0179 25.4694 13.1072 25.2558L15.8212 18.5132H17.6966C17.9787 18.5118 18.2488 18.399 18.4482 18.1996C18.6477 18.0002 18.7604 17.7301 18.7618 17.448V17.4197C18.7604 17.1376 18.6477 16.8676 18.4482 16.6681C18.2488 16.4687 17.9787 16.356 17.6966 16.3545H16.6938L18.7618 11.1871L24.3995 25.2558C24.4888 25.4694 24.6335 25.6553 24.8188 25.7941C24.9968 25.9237 25.2106 25.9949 25.4307 25.9981C25.5772 26.0071 25.7239 25.9845 25.8608 25.9317C25.9977 25.8789 26.1216 25.7971 26.224 25.6921C26.4187 25.4728 26.5204 25.1862 26.5073 24.8932C26.5144 24.7539 26.4912 24.6147 26.4393 24.4852Z" fill="white"/>
<defs>
<linearGradient id="paint0_linear" x1="-1.8" y1="24.48" x2="38.5" y2="23.5" gradientUnits="userSpaceOnUse">
<stop stop-color="#30BAC6"/>
<stop offset="1" stop-color="#B6509E"/>
</linearGradient>
</defs>
</svg>
