<svg width="36" height="36" viewBox="0 0 36 36" fill="none" xmlns="http://www.w3.org/2000/svg">
<circle cx="18" cy="18" r="18" fill="#DC6BE5"/>
<path d="M14.5362 9.06863C14.2854 9.02998 14.2748 9.02545 14.3928 9.00742C14.619 8.97286 15.1529 9.01997 15.5208 9.10691C16.3798 9.30985 17.1614 9.8297 17.9957 10.753L18.2174 10.9982L18.5344 10.9476C19.8702 10.7342 21.2292 10.9038 22.3658 11.4257C22.6785 11.5692 23.1715 11.855 23.2331 11.9285C23.2527 11.9519 23.2887 12.1025 23.3131 12.2633C23.3975 12.8195 23.3553 13.2459 23.1842 13.5643C23.091 13.7376 23.0858 13.7925 23.1485 13.9408C23.1985 14.0592 23.3378 14.1467 23.4758 14.1466C23.7582 14.1462 24.0622 13.6924 24.2031 13.0609L24.2591 12.8101L24.3699 12.9349C24.9779 13.6195 25.4555 14.5533 25.5375 15.2179L25.5589 15.3912L25.4567 15.2336C25.2809 14.9626 25.1041 14.778 24.8778 14.6292C24.4698 14.3609 24.0385 14.2696 22.8962 14.2098C21.8644 14.1558 21.2805 14.0682 20.7015 13.8805C19.7164 13.5613 19.2198 13.1361 18.0496 11.6102C17.5299 10.9325 17.2086 10.5575 16.8891 10.2555C16.163 9.5693 15.4495 9.20943 14.5362 9.06863Z" fill="white"/>
<path d="M23.4658 10.5819C23.4918 10.1278 23.5536 9.8282 23.6783 9.55463C23.7276 9.44635 23.7738 9.35772 23.781 9.35772C23.788 9.35772 23.7666 9.43764 23.7332 9.53532C23.6427 9.80081 23.6278 10.164 23.6902 10.5865C23.7694 11.1225 23.8144 11.1999 24.3846 11.779C24.6519 12.0506 24.963 12.3932 25.0756 12.5402L25.2807 12.8077L25.0756 12.6165C24.825 12.3828 24.2484 11.927 24.1211 11.8619C24.0356 11.8182 24.023 11.8189 23.9703 11.871C23.9218 11.9191 23.9115 11.9912 23.9048 12.3323C23.8943 12.8639 23.8214 13.2051 23.6455 13.5463C23.5503 13.7308 23.5352 13.6914 23.6214 13.4832C23.6856 13.3276 23.6922 13.2593 23.6918 12.7447C23.6907 11.7106 23.5672 11.4621 22.843 11.0362C22.6595 10.9283 22.3571 10.7728 22.1711 10.6905C21.9851 10.6082 21.8373 10.5365 21.8427 10.5311C21.8632 10.5109 22.5695 10.7158 22.8539 10.8245C23.2768 10.9861 23.3466 11.0071 23.3979 10.9876C23.4324 10.9745 23.4491 10.8749 23.4658 10.5819Z" fill="white"/>
<path d="M15.0233 12.3508C14.5143 11.6543 14.1994 10.5864 14.2675 9.78809L14.2886 9.54105L14.4045 9.56206C14.6221 9.6015 14.9972 9.74029 15.1729 9.84634C15.655 10.1373 15.8637 10.5204 16.076 11.5042C16.1382 11.7924 16.2198 12.1185 16.2574 12.2289C16.3178 12.4066 16.5462 12.8216 16.7319 13.0912C16.8657 13.2854 16.7768 13.3774 16.4811 13.3508C16.0296 13.3103 15.4179 12.8907 15.0233 12.3508Z" fill="white"/>
<path d="M22.8484 17.5346C20.4696 16.5827 19.6318 15.7564 19.6318 14.3622C19.6318 14.157 19.6389 13.9891 19.6476 13.9891C19.6563 13.9891 19.7483 14.0568 19.8521 14.1396C20.3345 14.5241 20.8746 14.6884 22.37 14.9052C23.25 15.0328 23.7452 15.1359 24.202 15.2864C25.6538 15.765 26.5521 16.7362 26.7664 18.0591C26.8286 18.4435 26.7921 19.1643 26.6912 19.5442C26.6116 19.8443 26.3684 20.3851 26.3038 20.4059C26.286 20.4117 26.2685 20.3435 26.2638 20.2509C26.2394 19.7541 25.9869 19.2705 25.5628 18.9083C25.0805 18.4964 24.4326 18.1685 22.8484 17.5346Z" fill="white"/>
<path d="M21.1784 17.9301C21.1486 17.7538 21.0969 17.5287 21.0635 17.4298L21.0028 17.2501L21.1156 17.3758C21.2716 17.5499 21.3949 17.7726 21.4994 18.0692C21.5791 18.2956 21.5881 18.363 21.5875 18.7309C21.5869 19.092 21.5769 19.1678 21.5033 19.3715C21.3872 19.6929 21.243 19.9207 21.0012 20.1653C20.5667 20.6049 20.008 20.8482 19.2018 20.9492C19.0617 20.9666 18.6533 20.9962 18.2942 21.0148C17.3893 21.0616 16.7937 21.1582 16.2585 21.345C16.1816 21.3718 16.1129 21.3882 16.1059 21.3813C16.0842 21.3598 16.4486 21.144 16.7496 20.9998C17.1739 20.7966 17.5964 20.6858 18.5429 20.5292C19.0104 20.4517 19.4932 20.3578 19.6159 20.3205C20.7737 19.9676 21.3689 19.0571 21.1784 17.9301Z" fill="white"/>
<path d="M22.269 19.8549C21.9529 19.1796 21.8804 18.5276 22.0535 17.9196C22.0721 17.8546 22.1018 17.8014 22.1198 17.8014C22.1377 17.8014 22.2123 17.8415 22.2855 17.8904C22.4311 17.9879 22.7233 18.152 23.5014 18.5737C24.4725 19.0999 25.0262 19.5074 25.4027 19.9729C25.7325 20.3806 25.9365 20.845 26.0347 21.4113C26.0903 21.7319 26.0577 22.5037 25.9749 22.8266C25.7138 23.845 25.107 24.6449 24.2415 25.1117C24.1147 25.1801 24.0009 25.2362 23.9886 25.2365C23.9762 25.2367 24.0225 25.1199 24.0913 24.977C24.3823 24.3721 24.4155 23.7837 24.1954 23.1287C24.0606 22.7277 23.7858 22.2383 23.231 21.4113C22.5858 20.4498 22.4277 20.1939 22.269 19.8549Z" fill="white"/>
<path d="M13.3339 23.4983C14.2166 22.7575 15.315 22.2313 16.3155 22.0697C16.7466 22.0001 17.4649 22.0277 17.8642 22.1293C18.5042 22.2921 19.0767 22.6567 19.3745 23.0911C19.6655 23.5157 19.7903 23.8857 19.9203 24.7089C19.9716 25.0337 20.0273 25.3597 20.0442 25.4335C20.1418 25.8602 20.3318 26.2011 20.5672 26.3725C20.941 26.6445 21.5848 26.6613 22.2181 26.4158C22.3255 26.3741 22.4188 26.3453 22.4254 26.3518C22.4484 26.3745 22.1295 26.5866 21.9045 26.6983C21.6018 26.8486 21.3611 26.9067 21.0413 26.9067C20.4613 26.9067 19.9797 26.6135 19.5779 26.0155C19.4988 25.8978 19.3211 25.5454 19.183 25.2322C18.7587 24.2705 18.5492 23.9775 18.0566 23.6569C17.628 23.3779 17.0751 23.3279 16.6592 23.5306C16.1129 23.7969 15.9605 24.4907 16.3518 24.9305C16.5073 25.1053 16.7973 25.2559 17.0344 25.2853C17.4781 25.3402 17.8593 25.0047 17.8593 24.5595C17.8593 24.2705 17.7475 24.1055 17.4661 23.9793C17.0818 23.8069 16.6687 24.0085 16.6706 24.3673C16.6715 24.5203 16.7385 24.6163 16.8929 24.6858C16.9919 24.7303 16.9942 24.7338 16.9134 24.7171C16.5608 24.6445 16.4782 24.2219 16.7617 23.9414C17.1021 23.6047 17.8061 23.7533 18.0478 24.213C18.1494 24.4061 18.1611 24.7906 18.0726 25.0227C17.8744 25.5425 17.2967 25.8157 16.7105 25.667C16.3115 25.5657 16.149 25.4561 15.6679 24.9635C14.8318 24.1075 14.5073 23.9417 13.302 23.7547L13.071 23.7189L13.3339 23.4983Z" fill="white"/>
<path fill-rule="evenodd" clip-rule="evenodd" d="M9.41118 8.17873C12.2031 11.5467 14.1261 12.9363 14.3398 13.2298C14.5162 13.4722 14.4498 13.6902 14.1476 13.861C13.9795 13.9559 13.6339 14.0521 13.4609 14.0521C13.2652 14.0521 13.198 13.9771 13.198 13.9771C13.0845 13.8701 13.0206 13.8889 12.4379 12.8608C11.6289 11.6132 10.9519 10.5782 10.9334 10.5608C10.8907 10.5208 10.8914 10.5221 12.3554 13.1256C12.5919 13.6682 12.4024 13.8674 12.4024 13.9447C12.4024 14.1019 12.3593 14.1845 12.1641 14.4009C11.8389 14.7615 11.6934 15.1668 11.5885 16.0055C11.4708 16.9458 11.1399 17.6099 10.2229 18.7466C9.68608 19.412 9.59825 19.5339 9.4628 19.8021C9.29219 20.1398 9.24528 20.329 9.22627 20.7554C9.20617 21.2063 9.24531 21.4977 9.38391 21.9287C9.50525 22.3062 9.63191 22.5554 9.9557 23.0538C10.2351 23.4839 10.396 23.8037 10.396 23.9287C10.396 24.0282 10.4151 24.0283 10.8481 23.9311C11.8844 23.6986 12.7258 23.2895 13.199 22.7882C13.4919 22.4779 13.5606 22.3066 13.5629 21.8815C13.5643 21.6034 13.5545 21.5451 13.4789 21.3851C13.3557 21.1247 13.1316 20.9082 12.6376 20.5726C11.9903 20.1328 11.7138 19.7787 11.6374 19.2918C11.5748 18.8923 11.6475 18.6104 12.0055 17.8644C12.3762 17.0923 12.468 16.7633 12.5302 15.985C12.5703 15.4822 12.6259 15.2839 12.7712 15.1247C12.9228 14.9587 13.0593 14.9025 13.4345 14.8516C14.0461 14.7685 14.4356 14.6113 14.7557 14.3181C15.0334 14.0637 15.1496 13.8186 15.1674 13.4497L15.181 13.17L15.0258 12.9902C14.4638 12.3389 9.0348 7.66675 9.00021 7.66675C8.99283 7.66675 9.17777 7.89715 9.41118 8.17873ZM10.7115 21.2657C10.8386 21.0419 10.7711 20.7545 10.5585 20.6139C10.3577 20.4813 10.0457 20.5438 10.0457 20.7167C10.0457 20.7695 10.0751 20.8079 10.1412 20.8418C10.2527 20.8987 10.2608 20.9629 10.1731 21.0938C10.0843 21.2265 10.0915 21.3431 10.1933 21.4223C10.3575 21.5501 10.5898 21.4798 10.7115 21.2657Z" fill="white"/>
<path fill-rule="evenodd" clip-rule="evenodd" d="M15.567 14.9983C15.2799 15.086 15.0008 15.3884 14.9144 15.7056C14.8617 15.8991 14.8916 16.2384 14.9705 16.3433C15.0981 16.5125 15.2214 16.5571 15.5554 16.5548C16.2093 16.5503 16.7777 16.2715 16.8438 15.9231C16.898 15.6375 16.6483 15.2416 16.3045 15.0678C16.127 14.9782 15.7496 14.9426 15.567 14.9983ZM16.3314 15.5924C16.4323 15.45 16.3881 15.2961 16.2167 15.192C15.8901 14.9938 15.3962 15.1578 15.3962 15.4645C15.3962 15.6171 15.6537 15.7836 15.8898 15.7836C16.0469 15.7836 16.262 15.6905 16.3314 15.5924Z" fill="white"/>
</svg>
