<svg width="22" height="22" viewBox="0 0 22 22" fill="none" xmlns="http://www.w3.org/2000/svg">
<circle cx="11" cy="11" r="11" fill="#F49B33"/>
<path d="M15.0527 8.75273C14.9446 7.37273 13.7627 6.89016 12.2636 6.73218L12.2969 4.82082L11.134 4.80106L11.1012 6.66204C10.7955 6.65619 10.4834 6.6572 10.1719 6.65806L10.2053 4.78489L9.0423 4.76449L9.00885 6.67521C8.75693 6.67572 8.50913 6.67663 8.26808 6.67195L8.26803 6.66593L6.66347 6.63754L6.64195 7.87989C6.64195 7.87989 7.50162 7.87849 7.48709 7.89391C7.95827 7.90243 8.10648 8.17857 8.14718 8.41584L8.10954 10.593C8.14185 10.5935 8.18395 10.5959 8.23247 10.6028L8.1094 10.601L8.05613 13.6512C8.03254 13.7987 7.94132 14.0336 7.61171 14.0286C7.62684 14.0419 6.76643 14.0139 6.76643 14.0139L6.51102 15.3988L8.02531 15.4252C8.30674 15.4306 8.58382 15.4404 8.85542 15.4467L8.82236 17.3795L9.98457 17.3994L10.0179 15.488C10.3369 15.4995 10.6457 15.5073 10.9473 15.5127L10.9135 17.4162L12.0763 17.4359L12.1103 15.507C14.0683 15.429 15.4455 14.9602 15.6475 13.1265C15.8108 11.6504 15.1267 10.9778 14.0211 10.6921C14.702 10.3606 15.1337 9.76293 15.0527 8.75273ZM13.3526 12.8574C13.3289 14.302 10.8577 14.0943 10.0691 14.0813L10.1147 11.5203C10.9036 11.5345 13.3795 11.351 13.3526 12.8574ZM12.8749 9.23474C12.8519 10.5491 10.7917 10.3592 10.1356 10.3478L10.176 8.02588C10.8322 8.03727 12.8989 7.86378 12.8749 9.23474Z" fill="white"/>
</svg>
