<svg width="1062" height="397" viewBox="0 0 1062 397" fill="none" xmlns="http://www.w3.org/2000/svg">
  <path fill-rule="evenodd" clip-rule="evenodd" d="M178.5 0.659108C89.5938 11.3231 18.8718 77.9441 3.5108 165.5C2.6428 170.45 1.6528 180.025 1.3128 186.778C0.593799 201.033 -0.378204 199.41 13.0958 206.446C30.9458 215.767 49.0938 220.072 70.5888 220.083C89.5118 220.093 100.987 217.96 116.903 211.475C134.33 204.374 148.519 194.714 162.708 180.293C177.484 165.276 187.963 148.24 194.568 128.504C197.887 118.584 197.98 117.908 196.982 110.874C195.566 100.889 192.179 94.0171 185.284 87.1371C178.47 80.3381 171.044 76.5541 158.755 73.6181C150.943 71.7521 150 71.2831 150 69.2631V67.0001L197.75 66.9891C224.012 66.9831 247.099 66.7131 249.053 66.3901L252.606 65.8021L255.441 73.1511C265.886 100.231 287.735 131.775 306.505 146.875C319.425 157.269 340.5 166.337 359.442 169.652C368.237 171.191 387.733 171.041 395.25 169.376C398.775 168.595 398.76 167.563 395.012 152.213C375.597 72.7081 310.234 13.4351 228.872 1.55211C219.182 0.137113 187.532 -0.423892 178.5 0.659108ZM206.496 184.667C205.666 279.787 206.244 345.585 208.008 356.973C210.665 374.121 216.408 386.114 225.347 393.18C231.131 397.752 230.8 397.756 250.5 392.871C274.743 386.859 298.839 375.298 321.384 358.861C321.87 358.506 316.748 345.455 310.003 329.858C294.589 294.22 208.301 99.9941 207.531 99.2051C207.373 99.0431 206.907 137.501 206.496 184.667ZM556.687 108.117C527.736 110.424 504.052 122.998 488.237 144.458C468.963 170.612 465.005 208.458 478.489 237.675C491.136 265.078 516.184 282.179 550.857 287.08C562.654 288.748 587.315 287.722 597 285.162C606.348 282.69 613.963 279.729 620.735 275.934C623.614 274.32 626.625 273 627.425 273C628.226 273 630.778 275.25 633.097 278C635.416 280.75 638.116 283 639.098 283C640.765 283 640.888 281.212 640.968 255.908C641.061 226.333 640.542 224.076 636.345 235.801C632.147 247.529 627.888 254.154 618.521 263.532C604.386 277.683 589.698 284.017 571.09 283.985C544.772 283.94 522.95 269.713 510.529 244.5C504.228 231.709 501.827 221.431 501.231 204.703C500.343 179.726 505.736 159.06 517.764 141.347C522.517 134.348 533.084 124.207 539.608 120.384C557.854 109.691 580.296 109.273 600.287 119.253C612.094 125.148 624.799 137.992 631.197 150.5C633.729 155.45 636.367 161.413 637.059 163.75C637.75 166.087 638.92 168 639.658 168C640.748 168 641 162.836 641 140.5C641 123.934 640.625 113 640.057 113C639.538 113 636.772 115.475 633.912 118.5C631.051 121.525 628.116 124 627.39 124C626.664 124 623.995 122.684 621.459 121.076C611.922 115.028 594.035 109.376 581.5 108.451C577.65 108.166 572.7 107.799 570.5 107.634C568.3 107.47 562.084 107.687 556.687 108.117ZM991.633 109.136C976.283 110.678 964.913 115.525 955.818 124.404C945.725 134.258 941.421 146.012 942.17 161.675C942.54 169.412 943.095 171.668 946.277 178.369C950.97 188.25 958.963 196.457 968.564 201.251C972.379 203.156 983.6 207.516 993.5 210.94C1017.75 219.326 1024.68 222.739 1030.4 229.102C1038.97 238.637 1040.37 252.711 1034.02 265.608C1030.36 273.05 1025.85 277.239 1017.05 281.366C1011.49 283.97 1009.04 284.497 1000.89 284.829C990.333 285.26 983.549 283.832 974.597 279.296C964.22 274.037 951.598 258.937 945.411 244.379C942.349 237.175 940.477 236.58 940.545 242.833C940.57 245.125 940.683 256 940.795 267C940.938 280.91 941.339 287 942.114 287C942.727 287 944.911 285.103 946.969 282.785L950.709 278.57L957.605 281.702C969.14 286.941 978.248 288.503 997 288.461C1015.86 288.419 1022.93 287.096 1034.79 281.39C1057.74 270.356 1067.29 244.65 1057.86 219.326C1055.14 212.015 1044.36 200.926 1035.5 196.319C1032.2 194.603 1020.72 190.19 1010 186.513C988.434 179.118 979.582 174.915 973.327 169.101C967.236 163.439 964.755 157.944 964.215 148.915C963.329 134.09 969.155 123.265 981.374 117.032C987.46 113.927 989.186 113.524 997.837 113.18C1005.64 112.87 1008.59 113.181 1013.17 114.794C1026.92 119.641 1038.45 131.637 1047.13 150.132C1052.47 161.519 1053 160.125 1053 134.559C1053 118.592 1052.66 111.911 1051.84 111.4C1050.72 110.707 1049.91 111.477 1045.5 117.419L1043.5 120.116L1036.5 116.541C1024.1 110.207 1007.78 107.514 991.633 109.136ZM679.543 111.931C678.798 113.136 679.364 113.429 686.291 115.417C689.951 116.468 693.564 118.418 696.106 120.715C703.946 127.798 703.511 123.967 703.409 185C703.314 242.347 702.693 253.185 698.827 264.944C695.918 273.79 689.907 279.784 681.034 282.683C677.478 283.846 674.403 285.292 674.201 285.898C673.938 286.685 683.019 287 706 287C730.347 287 738.071 286.712 737.772 285.815C737.554 285.163 734.822 284.05 731.698 283.341C719.864 280.653 713.62 275.305 710.47 265.16C708.942 260.237 708.663 254.028 708.327 217.5C708.114 194.4 708.291 165.103 708.72 152.395L709.5 129.291L732.249 180.395C744.761 208.503 759.937 242.925 765.972 256.89C772.008 270.854 777.191 282.524 777.49 282.823C778.49 283.824 779.664 281.577 784.977 268.5C789.767 256.711 806.828 218.17 821.497 186C824.632 179.125 831.696 163.375 837.195 151C842.694 138.625 847.598 127.825 848.092 127C848.628 126.106 848.891 153.569 848.745 195C848.518 259.513 848.371 264.787 846.697 268.5C842.993 276.716 834.616 282.44 824.566 283.621C820.855 284.057 819 284.729 819 285.638C819 286.766 826.22 287 861 287C887.004 287 903 286.636 903 286.045C903 285.52 901.313 284.816 899.25 284.481C892.439 283.375 886.675 280.742 882.364 276.768C878.924 273.597 877.893 271.804 876.978 267.395C875.329 259.452 876.21 135.123 877.957 129.304C880.543 120.685 889.377 114 898.178 114C900.034 114 901 113.481 901 112.483C901 111.16 897.684 111.001 874.958 111.233L848.916 111.5L840.098 132C822.56 172.772 790.875 243.01 790.032 242.982C789.739 242.973 776.48 213.273 760.566 176.982L731.631 111H705.875C691.057 111 679.874 111.395 679.543 111.931ZM296.215 167.58C296.514 168.086 311.271 201.575 329.009 242C346.746 282.425 361.588 315.866 361.992 316.313C363.759 318.27 380.215 289.247 386.891 272.4C397.249 246.261 402.838 210.16 400.304 185.762L399.5 178.024L370 177.673C345.107 177.378 338.626 176.984 328.5 175.148C318.027 173.25 303.013 169.477 297.478 167.353C296.466 166.965 295.911 167.064 296.215 167.58ZM166.698 203.012C150.08 213.33 120.71 222.992 96.4998 226.106C73.0818 229.118 35.8758 227.288 11.7608 221.939C6.9538 220.872 2.73979 220 2.39479 220C0.501792 220 6.3628 248.889 11.2018 263.403C15.0068 274.816 24.0688 293.965 30.7548 304.72C59.2048 350.485 106.311 383.654 158.707 394.813L167.914 396.774L171.91 393.835C182.819 385.812 190.741 367.763 193.971 343.572C195.452 332.475 196.783 300.919 197.607 257.338L198.31 220.176L194.09 214.838C186.682 205.47 178.887 197.994 176.619 198.084C175.454 198.13 170.989 200.348 166.698 203.012Z" fill="white"/>
</svg>
