<svg width="67" height="10" viewBox="0 0 67 10" fill="none" xmlns="http://www.w3.org/2000/svg">
<path d="M45.7298 2.17079L45.7576 2.17113L45.7601 2.17116L45.7833 3.47489C45.7833 3.60976 45.8531 3.72215 45.9927 3.72215L49.9941 3.74463C50.0639 3.74463 50.1104 3.78959 50.1104 3.85702V5.43049C50.1104 5.49645 50.0659 5.5409 49.9986 5.54282C49.9805 5.55376 49.958 5.55978 49.9324 5.55978H45.9388C45.9254 5.55978 45.9127 5.5608 45.9007 5.56277C45.8224 5.60082 45.7833 5.68918 45.7833 5.79014L45.7601 7.2737C45.7601 7.29658 45.7547 7.31687 45.7449 7.3337C45.7807 7.41632 45.8758 7.45764 45.9852 7.45764L47.5177 7.47997C47.5873 7.47997 47.6338 7.52462 47.6338 7.5916V9.15455C47.6338 9.22153 47.5873 9.26619 47.5177 9.26619H42.2237C42.154 9.26619 42.1076 9.22153 42.1076 9.15455V7.5916C42.1076 7.52462 42.154 7.47997 42.2237 7.47997L43.5936 7.45764C43.7097 7.45764 43.8258 7.41298 43.849 7.30134V2.07665C43.849 1.94268 43.7329 1.8757 43.5936 1.8757L42.2005 1.85337C42.1308 1.85337 42.0844 1.80871 42.0844 1.74173V0.178785C42.0844 0.111802 42.1308 0.0671463 42.2005 0.0671463H54.0422C54.1119 0.0671463 54.1583 0.13413 54.1583 0.178785V2.90277C54.1583 2.96976 54.1119 3.01441 54.0422 3.01441H52.4169C52.3472 3.01441 52.3008 2.96976 52.3008 2.90277L52.2776 2.1213C52.2776 1.98733 52.2079 1.89802 52.0918 1.8757H45.9388C45.7994 1.8757 45.7298 1.98733 45.7298 2.1213V2.17079ZM25.6838 7.40411C25.7302 7.40411 25.7997 7.44898 25.8229 7.51629V9.08686C25.8229 9.15417 25.7766 9.19904 25.707 9.19904H20.4215C20.3519 9.19904 20.3056 9.15417 20.3056 9.08686V7.51629C20.3056 7.44898 20.3519 7.40411 20.4215 7.40411L21.3951 7.38167C21.5342 7.38167 21.5806 7.29192 21.511 7.17974C21.3488 6.95537 20.8388 6.21496 20.6997 6.0579C20.5838 5.90085 20.4215 5.87841 20.2824 5.87841C20.1433 5.87841 17.9178 5.87841 17.9178 5.87841L16.3414 5.90085C16.2719 5.90085 16.2255 5.94572 16.2255 6.01303V7.17974C16.2255 7.31436 16.3414 7.38167 16.4805 7.38167L18.0569 7.40411C18.1265 7.40411 18.1728 7.44898 18.1728 7.51629V9.08686C18.1728 9.15417 18.1265 9.19904 18.0569 9.19904H12.7714C12.7018 9.19904 12.6555 9.15417 12.6555 9.08686V7.51629C12.6555 7.44898 12.7018 7.40411 12.7714 7.40411L14.0928 7.38167C14.2319 7.38167 14.3478 7.31436 14.3478 7.17974V2.08661C14.3478 1.95199 14.2319 1.88468 14.0928 1.88468L12.7482 1.86224C12.6787 1.86224 12.6323 1.81737 12.6323 1.75006V0.112183C12.6323 0.0448734 12.6787 0 12.7482 0H21.5574C23.2265 0 24.5711 1.32376 24.5711 2.93921C24.5711 4.01617 23.9915 4.93607 23.1106 5.45211C22.8556 5.54186 22.8324 5.69892 22.9252 5.85597C22.9947 5.96816 23.667 7.00025 23.8061 7.22461C23.8988 7.35923 23.9683 7.38167 24.1074 7.38167L25.6838 7.40411ZM21.511 4.0386C22.137 4.0386 22.647 3.545 22.647 2.93921C22.647 2.33341 22.137 1.83981 21.511 1.83981H21.3488L16.3182 1.86224C16.2487 1.86224 16.2023 1.90712 16.2023 1.97443V3.90398C16.2023 3.97129 16.2487 4.01617 16.3182 4.01617L21.3488 4.0386H21.511ZM9.16144 9.26619H3.35686C2.07473 9.26619 0.815905 8.16946 0.279739 6.82654C0.0932462 6.33413 0 5.81934 0 5.30456V4.07354C0 3.55875 0.0932462 3.04396 0.279739 2.55156C0.815905 1.20863 2.00479 0.11191 3.35686 0.11191L11.2595 0.0671463C11.3294 0.0671463 11.376 0.11191 11.376 0.179057V2.90967C11.376 2.97682 11.3294 3.02158 11.2595 3.02158H9.55774C9.48781 3.02158 9.44118 2.97682 9.44118 2.90967L9.41787 2.17106C9.41787 2.03677 9.34794 1.92486 9.20807 1.92486L3.61329 1.94724C3.00719 1.94724 2.37778 2.50679 2.07473 3.22302C1.95817 3.51399 1.91155 3.78257 1.91155 4.07354V5.32694C1.91155 5.59552 1.95817 5.88649 2.07473 6.17746C2.35447 6.89369 2.98388 7.498 3.61329 7.498L9.16144 7.47562C9.30131 7.47562 9.41787 7.36371 9.41787 7.22942L9.44118 6.44604C9.44118 6.3789 9.48781 6.33413 9.55774 6.33413H11.2595C11.3294 6.33413 11.376 6.3789 11.376 6.44604V9.13189C11.376 9.19904 11.3294 9.2438 11.2595 9.2438H9.58105L9.16144 9.26619ZM41.0782 7.47997C41.1478 7.47997 41.1943 7.52462 41.171 7.5916V9.15455C41.171 9.22153 41.1246 9.26619 41.055 9.26619H35.7617C35.6921 9.26619 35.6456 9.22153 35.6456 9.15455V7.5916C35.6456 7.52462 35.6921 7.47997 35.7617 7.47997L37.0618 7.45764C37.2011 7.45764 37.3172 7.39065 37.3172 7.25669V6.07332C37.3172 5.93935 37.2475 5.82771 37.1082 5.82771H31.0024C30.8631 5.82771 30.7935 5.93935 30.7935 6.07332V7.25669C30.7935 7.39065 30.9095 7.45764 31.0488 7.45764L32.3489 7.47997C32.4186 7.47997 32.465 7.52462 32.465 7.5916V9.15455C32.465 9.22153 32.4186 9.26619 32.3489 9.26619H27.0557C26.986 9.26619 26.9396 9.22153 26.9396 9.15455V7.5916C26.9396 7.52462 26.986 7.47997 27.0557 7.47997L28.6808 7.45764C28.8201 7.45764 28.9362 7.39065 28.9362 7.25669V4.01916C28.9362 4.01916 28.9362 3.52795 29.029 3.12605C29.3308 1.63009 30.7702 0.0671463 32.3025 0.0671463H35.8313C37.3404 0.0671463 38.7798 1.63009 39.1048 3.12605C39.1977 3.52795 39.1977 4.01916 39.1977 4.01916V7.25669C39.1977 7.39065 39.3138 7.45764 39.4531 7.45764L41.0782 7.47997ZM37.0618 3.99683C37.2475 3.99683 37.3404 3.92985 37.3404 3.7289C37.3172 3.55028 37.2707 3.327 37.085 2.94743C36.7136 2.16596 35.9939 1.85337 35.4367 1.85337H32.7204C32.1632 1.85337 31.4435 2.16596 31.072 2.94743C30.8863 3.327 30.8399 3.57261 30.8167 3.7289C30.7935 3.92985 30.8863 3.99683 31.072 3.99683H37.0618ZM66.8368 0.0671463C66.9068 0.0671463 66.9534 0.13413 67 0.178785V2.90277C67 2.96976 66.9534 3.01441 66.8835 3.01441H65.2518C65.1818 3.01441 65.1352 2.96976 65.1352 2.90277L65.1119 2.1213C65.1119 1.98733 65.042 1.89802 64.9254 1.8757H62.2914C62.1515 1.8757 62.0816 1.98733 62.0816 2.1213V7.25669C62.0816 7.39065 62.1982 7.45764 62.338 7.45764L63.8765 7.47997C63.9464 7.47997 63.993 7.52462 63.993 7.5916V9.15455C63.993 9.22153 63.9464 9.26619 63.8765 9.26619H58.4453C58.3753 9.26619 58.3287 9.22153 58.3287 9.15455V7.5916C58.3287 7.52462 58.3753 7.47997 58.4453 7.47997L59.9138 7.45764C60.0304 7.45764 60.1469 7.41298 60.1702 7.30134V2.07665C60.1702 1.94268 60.0537 1.8757 59.9138 1.8757H57.2798C57.1632 1.89802 57.0933 1.98733 57.0933 2.1213L57.07 2.90277C57.07 2.96976 57.0234 3.01441 56.9535 3.01441H55.3218C55.2518 3.01441 55.2052 2.96976 55.2052 2.90277V0.178785C55.2052 0.111802 55.2518 0.0671463 55.3218 0.0671463H66.8368Z" fill="white"/>
<path d="M45.7298 2.17079L45.7576 2.17113L45.7601 2.17116L45.7833 3.47489C45.7833 3.60976 45.8531 3.72215 45.9927 3.72215L49.9941 3.74463C50.0639 3.74463 50.1104 3.78959 50.1104 3.85702V5.43049C50.1104 5.49645 50.0659 5.5409 49.9986 5.54282C49.9805 5.55376 49.958 5.55978 49.9324 5.55978H45.9388C45.9254 5.55978 45.9127 5.5608 45.9007 5.56277C45.8224 5.60082 45.7833 5.68918 45.7833 5.79014L45.7601 7.2737C45.7601 7.29658 45.7547 7.31687 45.7449 7.3337C45.7807 7.41632 45.8758 7.45764 45.9852 7.45764L47.5177 7.47997C47.5873 7.47997 47.6338 7.52462 47.6338 7.5916V9.15455C47.6338 9.22153 47.5873 9.26619 47.5177 9.26619H42.2237C42.154 9.26619 42.1076 9.22153 42.1076 9.15455V7.5916C42.1076 7.52462 42.154 7.47997 42.2237 7.47997L43.5936 7.45764C43.7097 7.45764 43.8258 7.41298 43.849 7.30134V2.07665C43.849 1.94268 43.7329 1.8757 43.5936 1.8757L42.2005 1.85337C42.1308 1.85337 42.0844 1.80871 42.0844 1.74173V0.178785C42.0844 0.111802 42.1308 0.0671463 42.2005 0.0671463H54.0422C54.1119 0.0671463 54.1583 0.13413 54.1583 0.178785V2.90277C54.1583 2.96976 54.1119 3.01441 54.0422 3.01441H52.4169C52.3472 3.01441 52.3008 2.96976 52.3008 2.90277L52.2776 2.1213C52.2776 1.98733 52.2079 1.89802 52.0918 1.8757H45.9388C45.7994 1.8757 45.7298 1.98733 45.7298 2.1213V2.17079ZM25.6838 7.40411C25.7302 7.40411 25.7997 7.44898 25.8229 7.51629V9.08686C25.8229 9.15417 25.7766 9.19904 25.707 9.19904H20.4215C20.3519 9.19904 20.3056 9.15417 20.3056 9.08686V7.51629C20.3056 7.44898 20.3519 7.40411 20.4215 7.40411L21.3951 7.38167C21.5342 7.38167 21.5806 7.29192 21.511 7.17974C21.3488 6.95537 20.8388 6.21496 20.6997 6.0579C20.5838 5.90085 20.4215 5.87841 20.2824 5.87841C20.1433 5.87841 17.9178 5.87841 17.9178 5.87841L16.3414 5.90085C16.2719 5.90085 16.2255 5.94572 16.2255 6.01303V7.17974C16.2255 7.31436 16.3414 7.38167 16.4805 7.38167L18.0569 7.40411C18.1265 7.40411 18.1728 7.44898 18.1728 7.51629V9.08686C18.1728 9.15417 18.1265 9.19904 18.0569 9.19904H12.7714C12.7018 9.19904 12.6555 9.15417 12.6555 9.08686V7.51629C12.6555 7.44898 12.7018 7.40411 12.7714 7.40411L14.0928 7.38167C14.2319 7.38167 14.3478 7.31436 14.3478 7.17974V2.08661C14.3478 1.95199 14.2319 1.88468 14.0928 1.88468L12.7482 1.86224C12.6787 1.86224 12.6323 1.81737 12.6323 1.75006V0.112183C12.6323 0.0448734 12.6787 0 12.7482 0H21.5574C23.2265 0 24.5711 1.32376 24.5711 2.93921C24.5711 4.01617 23.9915 4.93607 23.1106 5.45211C22.8556 5.54186 22.8324 5.69892 22.9252 5.85597C22.9947 5.96816 23.667 7.00025 23.8061 7.22461C23.8988 7.35923 23.9683 7.38167 24.1074 7.38167L25.6838 7.40411ZM21.511 4.0386C22.137 4.0386 22.647 3.545 22.647 2.93921C22.647 2.33341 22.137 1.83981 21.511 1.83981H21.3488L16.3182 1.86224C16.2487 1.86224 16.2023 1.90712 16.2023 1.97443V3.90398C16.2023 3.97129 16.2487 4.01617 16.3182 4.01617L21.3488 4.0386H21.511ZM9.16144 9.26619H3.35686C2.07473 9.26619 0.815905 8.16946 0.279739 6.82654C0.0932462 6.33413 0 5.81934 0 5.30456V4.07354C0 3.55875 0.0932462 3.04396 0.279739 2.55156C0.815905 1.20863 2.00479 0.11191 3.35686 0.11191L11.2595 0.0671463C11.3294 0.0671463 11.376 0.11191 11.376 0.179057V2.90967C11.376 2.97682 11.3294 3.02158 11.2595 3.02158H9.55774C9.48781 3.02158 9.44118 2.97682 9.44118 2.90967L9.41787 2.17106C9.41787 2.03677 9.34794 1.92486 9.20807 1.92486L3.61329 1.94724C3.00719 1.94724 2.37778 2.50679 2.07473 3.22302C1.95817 3.51399 1.91155 3.78257 1.91155 4.07354V5.32694C1.91155 5.59552 1.95817 5.88649 2.07473 6.17746C2.35447 6.89369 2.98388 7.498 3.61329 7.498L9.16144 7.47562C9.30131 7.47562 9.41787 7.36371 9.41787 7.22942L9.44118 6.44604C9.44118 6.3789 9.48781 6.33413 9.55774 6.33413H11.2595C11.3294 6.33413 11.376 6.3789 11.376 6.44604V9.13189C11.376 9.19904 11.3294 9.2438 11.2595 9.2438H9.58105L9.16144 9.26619ZM41.0782 7.47997C41.1478 7.47997 41.1943 7.52462 41.171 7.5916V9.15455C41.171 9.22153 41.1246 9.26619 41.055 9.26619H35.7617C35.6921 9.26619 35.6456 9.22153 35.6456 9.15455V7.5916C35.6456 7.52462 35.6921 7.47997 35.7617 7.47997L37.0618 7.45764C37.2011 7.45764 37.3172 7.39065 37.3172 7.25669V6.07332C37.3172 5.93935 37.2475 5.82771 37.1082 5.82771H31.0024C30.8631 5.82771 30.7935 5.93935 30.7935 6.07332V7.25669C30.7935 7.39065 30.9095 7.45764 31.0488 7.45764L32.3489 7.47997C32.4186 7.47997 32.465 7.52462 32.465 7.5916V9.15455C32.465 9.22153 32.4186 9.26619 32.3489 9.26619H27.0557C26.986 9.26619 26.9396 9.22153 26.9396 9.15455V7.5916C26.9396 7.52462 26.986 7.47997 27.0557 7.47997L28.6808 7.45764C28.8201 7.45764 28.9362 7.39065 28.9362 7.25669V4.01916C28.9362 4.01916 28.9362 3.52795 29.029 3.12605C29.3308 1.63009 30.7702 0.0671463 32.3025 0.0671463H35.8313C37.3404 0.0671463 38.7798 1.63009 39.1048 3.12605C39.1977 3.52795 39.1977 4.01916 39.1977 4.01916V7.25669C39.1977 7.39065 39.3138 7.45764 39.4531 7.45764L41.0782 7.47997ZM37.0618 3.99683C37.2475 3.99683 37.3404 3.92985 37.3404 3.7289C37.3172 3.55028 37.2707 3.327 37.085 2.94743C36.7136 2.16596 35.9939 1.85337 35.4367 1.85337H32.7204C32.1632 1.85337 31.4435 2.16596 31.072 2.94743C30.8863 3.327 30.8399 3.57261 30.8167 3.7289C30.7935 3.92985 30.8863 3.99683 31.072 3.99683H37.0618ZM66.8368 0.0671463C66.9068 0.0671463 66.9534 0.13413 67 0.178785V2.90277C67 2.96976 66.9534 3.01441 66.8835 3.01441H65.2518C65.1818 3.01441 65.1352 2.96976 65.1352 2.90277L65.1119 2.1213C65.1119 1.98733 65.042 1.89802 64.9254 1.8757H62.2914C62.1515 1.8757 62.0816 1.98733 62.0816 2.1213V7.25669C62.0816 7.39065 62.1982 7.45764 62.338 7.45764L63.8765 7.47997C63.9464 7.47997 63.993 7.52462 63.993 7.5916V9.15455C63.993 9.22153 63.9464 9.26619 63.8765 9.26619H58.4453C58.3753 9.26619 58.3287 9.22153 58.3287 9.15455V7.5916C58.3287 7.52462 58.3753 7.47997 58.4453 7.47997L59.9138 7.45764C60.0304 7.45764 60.1469 7.41298 60.1702 7.30134V2.07665C60.1702 1.94268 60.0537 1.8757 59.9138 1.8757H57.2798C57.1632 1.89802 57.0933 1.98733 57.0933 2.1213L57.07 2.90277C57.07 2.96976 57.0234 3.01441 56.9535 3.01441H55.3218C55.2518 3.01441 55.2052 2.96976 55.2052 2.90277V0.178785C55.2052 0.111802 55.2518 0.0671463 55.3218 0.0671463H66.8368Z" fill="white"/>
</svg>
