<svg width="98" height="7" viewBox="0 0 98 7" fill="none" xmlns="http://www.w3.org/2000/svg">
  <path d="M22.3024 0.0469238C22.2063 0.0601509 21.9456 0.1329 21.7191 0.212263C20.1957 0.728122 19.2761 2.11036 19.3722 3.7373C19.4889 5.71476 21.1221 7.11023 23.1602 6.99118C24.0935 6.93166 24.7522 6.67373 25.4934 6.05867L25.7679 5.82719L25.3767 5.45022C24.9924 5.07986 24.9856 5.07324 24.8277 5.18568C24.3611 5.50974 23.9562 5.74783 23.7092 5.82058C23.3112 5.94624 22.6043 5.93962 22.1789 5.79412C21.6985 5.6354 21.129 5.13277 20.8819 4.64336C20.7035 4.29946 20.6898 4.20687 20.6898 3.50583C20.6898 2.86431 20.7104 2.69897 20.8407 2.43443C21.0192 2.05084 21.4789 1.56143 21.8495 1.35641C22.6798 0.893462 23.867 1.05219 24.663 1.72677L24.9032 1.92518L25.1022 1.70693C25.212 1.58789 25.3904 1.38948 25.5002 1.26382L25.6924 1.03896L25.4247 0.820713C25.013 0.48342 24.416 0.20565 23.9013 0.0998324C23.469 0.00724228 22.7004 -0.019212 22.3024 0.0469238Z" fill="white"/>
  <path d="M46.389 0.106446C45.1195 0.423898 44.1519 1.35641 43.8156 2.57992C43.6853 3.0561 43.6853 3.96878 43.8156 4.4648C44.2548 6.07189 45.7508 7.09039 47.5213 6.99118C48.4545 6.93827 49.3055 6.58775 49.8476 6.03221L50.0466 5.82719L49.7241 5.45683C49.5456 5.25842 49.3672 5.09308 49.3329 5.09308C49.2986 5.09308 49.127 5.1989 48.9486 5.33779C48.3791 5.75444 47.9536 5.90656 47.3223 5.90656C46.8625 5.91317 46.6978 5.8801 46.3821 5.74122C44.5087 4.91452 44.5087 2.09713 46.3821 1.27044C46.6909 1.13155 46.8694 1.09848 47.3154 1.09848C47.9399 1.09848 48.3722 1.25059 48.9418 1.67386L49.2643 1.91195L49.6554 1.47546L50.0535 1.04557L49.8133 0.85378C48.88 0.119673 47.5144 -0.177938 46.389 0.106446Z" fill="white"/>
  <path d="M56.8195 0.0733777C56.2362 0.179195 55.4333 0.622305 55.001 1.07203C53.2236 2.92383 53.9648 6.01237 56.3803 6.81262C57.6086 7.22266 59.1252 6.94489 60.079 6.1248L60.4222 5.82719L60.0447 5.46345C59.8389 5.25842 59.6536 5.09308 59.633 5.09308C59.6124 5.09308 59.4271 5.21874 59.2213 5.36424C59.0154 5.51635 58.7409 5.68169 58.6174 5.7346C57.4096 6.22401 56.0783 5.7346 55.5362 4.60368C55.3647 4.23993 55.3441 4.13412 55.3441 3.47276C55.3441 2.8114 55.3647 2.7122 55.5362 2.36829C55.7833 1.87889 56.3528 1.37625 56.8332 1.21753C57.4028 1.02573 58.0753 1.0588 58.6105 1.3035C58.8507 1.41593 59.1664 1.5945 59.3105 1.70693L59.5781 1.91195L59.9487 1.50191C60.1545 1.27705 60.3192 1.07203 60.3192 1.04557C60.3192 0.966211 59.8183 0.602464 59.4203 0.397443C58.734 0.0469234 57.6704 -0.0853482 56.8195 0.0733777Z" fill="white"/>
  <path d="M64.169 0.185809C64.1141 0.285013 61.3692 6.32321 61.1633 6.79939C61.1358 6.86552 61.2662 6.87875 61.7603 6.86552L62.3916 6.84568L63.071 5.29149C63.4484 4.43834 63.9768 3.23467 64.2444 2.62622C64.5121 2.01777 64.7523 1.54159 64.7797 1.56805C64.8277 1.61434 66.0149 4.29284 66.907 6.36289L67.1335 6.87875H68.4099L68.2246 6.4621C68.1285 6.23723 67.4354 4.7095 66.6943 3.07594L65.3493 0.0998327L64.7934 0.0799919C64.3062 0.0667648 64.2307 0.0799919 64.169 0.185809Z" fill="white"/>
  <path d="M87.4801 0.377603C87.3978 0.549556 86.7115 2.07729 85.943 3.77037L84.5568 6.84568L85.1401 6.86552C85.4695 6.87875 85.7577 6.85891 85.7851 6.83246C85.8126 6.806 86.3478 5.59572 86.986 4.14734C87.6174 2.69897 88.1595 1.54159 88.1869 1.56805C88.235 1.62096 89.1957 3.77698 90.1015 5.86687L90.5407 6.87875H91.1789C91.5289 6.87875 91.8171 6.87214 91.8171 6.85891C91.8171 6.8523 91.124 5.32456 90.2868 3.47276L88.7634 0.0998322L87.6242 0.0601507L87.4801 0.377603Z" fill="white"/>
  <path d="M0 6.87875H5.21533V5.82058H1.23521V3.96878H4.73497V2.97674H1.23521V1.19107L3.21155 1.17785L5.18102 1.158L5.22219 0.1329H0V6.87875Z" fill="white"/>
  <path d="M6.72503 6.87875H11.6727L11.6316 5.85365L9.79933 5.83381L7.96024 5.82058V0.1329H6.72503V6.87875Z" fill="white"/>
  <path d="M12.9011 6.87875H18.1919L18.1507 5.85365L16.1401 5.83381L14.1294 5.82058L14.1706 4.00184L15.9411 3.982L17.7047 3.96878V2.97674L15.9411 2.96351L14.1706 2.94367L14.1294 1.19107H18.1164V0.1329H12.9011V6.87875Z" fill="white"/>
  <path d="M26.557 1.19107H28.7529V6.87875H29.9882L30.0019 4.04814L30.0225 1.22414L31.141 1.2043L32.2527 1.19107V0.1329H26.557V1.19107Z" fill="white"/>
  <path d="M33.5565 6.87875H34.7917V1.17785L36.0132 1.2043C37.0906 1.22414 37.2553 1.23737 37.468 1.36303C37.8386 1.56805 38.017 1.87227 38.017 2.29554C38.017 2.71881 37.8935 2.97674 37.5916 3.19499C37.2828 3.41985 37.1318 3.45292 36.322 3.49921L35.6221 3.53889L36.8367 5.20552L38.0513 6.87875H38.7513C39.1424 6.87875 39.4581 6.86552 39.4581 6.85891C39.4581 6.84568 39.0395 6.2703 38.5317 5.58249L37.6053 4.33252L37.8798 4.23332C38.367 4.06798 38.7856 3.70423 39.0326 3.24128C39.2591 2.82463 39.266 2.79156 39.2385 2.18311C39.2042 1.46223 39.0875 1.17785 38.6552 0.787644C38.0307 0.212263 37.6533 0.1329 35.3956 0.1329H33.5565V6.87875Z" fill="white"/>
  <path d="M40.8992 6.87875H42.1344V0.1329H40.8992V6.87875Z" fill="white"/>
  <path d="M69.6519 6.87875H70.8871V4.69627H71.8341C73.1517 4.69627 73.7762 4.52432 74.3869 3.99523C75.3339 3.16853 75.2721 1.46223 74.2702 0.6686C74.1261 0.556169 73.8379 0.397443 73.632 0.31808C73.2821 0.179195 73.1174 0.165968 71.4567 0.146127L69.6519 0.126286V6.87875ZM73.2203 1.38948C74.0644 1.84582 74.0301 3.01642 73.1585 3.45292C72.8086 3.63148 72.7468 3.6381 71.841 3.6381H70.8871V1.17785L71.9028 1.2043C72.8292 1.22414 72.939 1.23737 73.2203 1.38948Z" fill="white"/>
  <path d="M76.4456 6.87875H77.6122V0.1329H76.4456V6.87875Z" fill="white"/>
  <path d="M79.0532 1.19107H81.2492V6.87875H82.4844V1.19107H84.6803V0.1329H79.0532V1.19107Z" fill="white"/>
  <path d="M93.0523 6.87875H98L97.9588 5.85365L96.1266 5.83381L94.2875 5.82058V0.1329H93.0523V6.87875Z" fill="white"/>
</svg>
