<svg width="70" height="17" viewBox="0 0 70 17" fill="none" xmlns="http://www.w3.org/2000/svg">
<path d="M36.566 17C33.319 17 33.1174 15.1719 33.7173 13.0943H36.3399C36.0848 14.2411 35.9222 15.2049 37.3635 15.2049C38.2497 15.2049 38.8055 14.657 38.9865 13.8417C39.4661 11.6814 34.2171 11.5487 35.0114 7.97465C35.4282 6.09678 36.6985 4.60092 39.8934 4.60092C42.4462 4.60092 43.4701 5.69751 42.7388 8.20809H40.186C40.3856 7.31001 40.4324 6.39589 39.3734 6.39589C38.5226 6.39589 37.9194 6.84508 37.7349 7.67539C37.2285 9.95223 42.5514 9.75282 41.713 13.5264C41.0223 16.6348 38.5625 17 36.566 17ZM51.8954 16.8007L54.5621 4.80054H61.4038L60.9937 6.64558H56.7742L56.1169 9.604H60.0062L59.5963 11.4489H55.7062L54.9279 14.9562H59.2863L58.8765 16.8007H51.8954ZM49.3444 9.60393L50.4122 4.80032H53.0342L50.3672 16.8015H47.7465L48.9356 11.449H45.9311L44.742 16.8015H42.1195L44.7856 4.80032H47.4082L46.3411 9.60393H49.3444ZM29.7857 8.20814L25.39 16.8015H22.7464L28.8854 4.80053H32.3412L33.0786 16.8015H30.3156L29.7857 8.20814ZM66.8174 4.79955C70.2553 4.79955 70.4111 6.99378 69.5799 10.7338C69.1698 12.5797 68.527 16.8007 64.0464 16.8007H59.7756C60.6642 12.8003 61.5527 8.79954 62.4416 4.79955H66.8174ZM66.9086 10.8005C67.3988 8.58994 67.8319 6.64549 66.0084 6.64549H64.6536C64.0386 9.41545 63.4229 12.1854 62.8072 14.9563H64.0748C65.6726 14.9563 66.2396 13.8089 66.9086 10.8005ZM22.1221 16.8015H19.5007L20.6895 11.4493H17.6852L16.4962 16.8015H13.8734L16.5405 4.80066H19.1621L18.0949 9.60397H21.0994L22.1662 4.80066H24.7878L22.1221 16.8015ZM8.6565 9.60393L9.31341 6.64551H6.31033L5.65217 9.60393H8.6565ZM14.5571 6.64551H11.9359L11.2788 9.60393H13.9L13.49 11.4493H10.8691L9.67899 16.8015H7.05762L8.24645 11.4493H5.24258L4.05344 16.8015H1.43176L2.62074 11.4493H0L0.409746 9.60393H3.03049L3.6874 6.64551H1.06665L1.47656 4.80062H4.09746L5.16458 0H7.78595L6.71992 4.80062H9.72426L10.7906 0H13.4124L12.3461 4.80062H14.9672L14.5571 6.64551Z" fill="white"/>
</svg>
