<svg width="48" height="18" viewBox="0 0 48 18" fill="none" xmlns="http://www.w3.org/2000/svg">
<path d="M0.105847 0.10585C0.0453628 0.151213 0 2.60081 0 5.54939V10.8871H1.81451V10.0101C1.82963 9.20866 1.875 9.08769 2.46471 8.42237L3.11491 7.68144L4.21874 9.28426L5.30745 10.8871H6.29031C6.81954 10.8871 7.25805 10.8417 7.25805 10.7964C7.25805 10.751 6.63809 9.85886 5.89717 8.83063C5.14112 7.78729 4.49092 6.84979 4.43044 6.72882C4.38507 6.57761 4.86894 5.94253 5.73084 5.00503C6.48688 4.1885 7.10684 3.47782 7.10684 3.41734C7.10684 3.22076 5.15624 3.32661 4.94455 3.5383C4.8387 3.65927 4.09778 4.4758 3.31149 5.36794L1.89012 6.98588L1.84475 3.49294L1.81451 3.17147e-06H0.997982C0.559475 3.17147e-06 0.151209 0.045366 0.105847 0.10585Z" fill="white"/>
<path d="M8.25603 0.241939C7.31853 1.17944 8.49796 2.63105 9.61691 1.89012C10.1159 1.57258 10.131 0.574599 9.64715 0.241939C9.20865 -0.0604801 8.55845 -0.0604801 8.25603 0.241939Z" fill="white"/>
<path d="M24.4959 4.21875L23.7248 3.75C23.0897 3.34173 22.8175 3.26613 22.0312 3.26613C19.8992 3.28125 18.5836 4.7631 18.5685 7.16733C18.5685 9.32962 19.627 10.7661 21.4869 11.0988C22.3185 11.25 23.5282 10.9324 24.133 10.4032L24.6471 9.94958V10.4183C24.6471 10.8871 24.6623 10.8871 25.4032 10.8871H26.1592V3.96283e-06H24.4959V4.21875ZM23.5887 5.126C24.8135 5.9879 24.7832 8.37701 23.5584 9.28426C23.0141 9.67741 21.8649 9.69253 21.2752 9.29938C19.6875 8.25604 20.0655 5.27721 21.8498 4.79334C22.3185 4.67238 23.1804 4.82358 23.5887 5.126Z" fill="white"/>
<path d="M45.9677 2.11693C45.9677 3.28124 45.9072 4.23386 45.8316 4.23386C45.756 4.23386 45.6199 4.12802 45.4989 3.99193C44.6673 2.99395 42.505 2.99395 41.3104 4.02217C40.3729 4.80846 39.9949 5.73084 39.9949 7.18245C39.9949 8.63406 40.3729 9.55644 41.3104 10.3578C42.4747 11.3407 44.3497 11.3709 45.5594 10.4183L46.1189 9.9647V10.4334C46.1189 10.872 46.134 10.8871 46.8749 10.8871H47.631V0H45.9677V2.11693ZM45.0755 5.15624C45.5443 5.4889 45.9677 6.44152 45.9677 7.18245C45.9677 7.95362 45.5443 8.87599 45.015 9.25402C44.3951 9.69252 43.261 9.70765 42.6713 9.28426C41.5221 8.43749 41.4011 6.18447 42.4596 5.24697C43.1249 4.64213 44.3044 4.59677 45.0755 5.15624Z" fill="white"/>
<path d="M14.0625 3.34173C13.7752 3.43246 13.3064 3.67439 13.0494 3.87096L12.5504 4.24899V3.79536C12.5504 3.34173 12.5353 3.32661 11.7943 3.32661H11.0383V10.8871H12.7016V8.54333C12.7016 6.84979 12.7621 6.04838 12.9133 5.67036C13.3215 4.70262 14.7278 4.36995 15.5292 5.0504L15.9526 5.4133L16.0433 10.8871H17.6915V8.10483C17.6915 5.21673 17.6159 4.71774 17.0413 4.1129C16.3609 3.37197 15.0756 3.05443 14.0625 3.34173Z" fill="white"/>
<path d="M34.7782 3.31149C32.7671 3.70463 31.4364 5.85181 31.8749 7.96874C32.2378 9.69253 33.2812 10.7661 34.8991 11.0685C36.4415 11.3558 38.1048 10.5847 38.8306 9.25402L39.1784 8.61894H38.3316C37.5907 8.61894 37.4243 8.67942 37.0312 9.07257C36.502 9.6018 35.7157 9.78325 34.9445 9.54132C34.2792 9.34474 33.9768 9.04233 33.6441 8.27116L33.4173 7.71168H39.3598L39.254 6.78931C39.0725 5.00503 37.9838 3.67439 36.4263 3.34173C35.6098 3.16028 35.5645 3.16028 34.7782 3.31149ZM36.5927 4.91431C37.0161 5.126 37.4999 5.82157 37.4999 6.19959C37.4999 6.29031 36.8044 6.3508 35.5342 6.3508C34.2641 6.3508 33.5685 6.29031 33.5685 6.19959C33.5685 5.83669 34.0524 5.14112 34.4455 4.92943C34.9747 4.62701 36.0332 4.62701 36.5927 4.91431Z" fill="white"/>
<path d="M8.16531 10.8871H9.82861V3.32661H8.16531V10.8871Z" fill="white"/>
<path d="M27.5201 10.8871H29.1834V8.80039C29.1834 7.66632 29.259 6.47177 29.3346 6.16935C29.5463 5.39818 30.1209 4.98991 30.9374 4.98991H31.6028V4.15826C31.6028 3.40221 31.5725 3.32661 31.2701 3.32661C30.6653 3.32661 29.8487 3.61391 29.5614 3.93145C29.1834 4.35483 29.0322 4.30947 29.0322 3.78024C29.0322 3.34173 29.0171 3.32661 28.2762 3.32661H27.5201V10.8871Z" fill="white"/>
<path d="M20.8669 15.1209C20.8669 15.2873 20.8064 15.4234 20.7157 15.4234C20.6401 15.4234 20.5645 15.5292 20.5645 15.6502C20.5645 15.7711 20.6401 15.877 20.7157 15.877C20.8064 15.877 20.8669 16.2399 20.8669 16.6935C20.8669 17.5857 21.1088 17.9939 21.6381 17.9939C21.9707 17.9939 22.0312 17.6159 21.6986 17.4798C21.5322 17.4193 21.4717 17.1774 21.4717 16.633C21.4717 16.0584 21.5322 15.877 21.6986 15.877C21.8195 15.877 21.9254 15.7711 21.9254 15.6502C21.9254 15.5292 21.8195 15.4234 21.6986 15.4234C21.5776 15.4234 21.4717 15.2873 21.4717 15.1209C21.4717 14.9244 21.3659 14.8185 21.1693 14.8185C20.9727 14.8185 20.8669 14.9244 20.8669 15.1209Z" fill="white"/>
<path d="M0.151209 15.4838C0.151209 15.5141 0.378024 16.0736 0.6502 16.7389C1.40625 18.4778 1.51209 18.4476 2.43447 16.134C2.70665 15.4385 2.70665 15.4234 2.41935 15.4234C2.20766 15.4234 2.05645 15.6502 1.79939 16.3306C1.61794 16.8296 1.45161 17.2379 1.43649 17.2379C1.42137 17.2379 1.23992 16.8296 1.05847 16.3306C0.816531 15.6653 0.6502 15.4234 0.438507 15.4234C0.272177 15.4234 0.151209 15.4536 0.151209 15.4838Z" fill="white"/>
<path d="M7.28829 15.7711C6.7893 16.3004 6.83466 17.2681 7.34877 17.6764C7.57559 17.8578 7.93849 17.9939 8.15018 17.9939C8.57357 17.9939 9.22377 17.6159 9.22377 17.374C9.22377 17.1925 8.66429 17.1925 8.54333 17.3891C8.39212 17.631 7.93849 17.5705 7.66631 17.2681C7.30341 16.875 7.46974 16.7842 8.49796 16.7842C9.28425 16.7842 9.37498 16.754 9.37498 16.4818C9.37498 16.3004 9.20865 15.998 8.99695 15.8014C8.51308 15.3024 7.74192 15.2873 7.28829 15.7711ZM8.7399 16.2097C8.78526 16.4365 8.67941 16.4818 8.18042 16.4818C7.59071 16.4818 7.37901 16.2701 7.66631 15.9677C7.878 15.756 8.69454 15.9526 8.7399 16.2097Z" fill="white"/>
<path d="M13.9113 16.7238C13.9113 17.873 13.9415 18.009 14.1834 17.9637C14.38 17.9334 14.4556 17.7066 14.5161 16.9355C14.5917 16.0433 14.622 15.9526 14.9546 15.9072C15.4385 15.8316 15.5746 16.0887 15.5746 17.1169C15.5746 17.8881 15.6048 17.9939 15.877 17.9939C16.1492 17.9939 16.1794 17.8881 16.1794 17.0413C16.1794 15.8619 15.9224 15.4234 15.2117 15.4234C14.9546 15.4234 14.6522 15.499 14.5463 15.6048C14.4103 15.7409 14.3649 15.7409 14.3649 15.6048C14.3649 15.499 14.259 15.4234 14.1381 15.4234C13.9566 15.4234 13.9113 15.6653 13.9113 16.7238Z" fill="white"/>
<path d="M26.3104 16.376C26.3104 17.7369 26.5221 17.9788 27.6713 17.9486L28.5786 17.9334V16.6784C28.5786 15.5292 28.5483 15.4234 28.2762 15.4234C28.0342 15.4234 27.9889 15.5443 27.9435 16.3457C27.8981 17.3286 27.6562 17.6764 27.1572 17.4949C26.9758 17.4193 26.9153 17.1925 26.9153 16.4062C26.9153 15.5292 26.885 15.4234 26.6129 15.4234C26.3407 15.4234 26.3104 15.5292 26.3104 16.376Z" fill="white"/>
<path d="M33.2661 16.7086C33.2661 17.752 33.3114 17.9939 33.4929 17.9939C33.6592 17.9939 33.7197 17.8125 33.7197 17.2379C33.7197 16.4969 34.0675 15.877 34.4757 15.877C34.5665 15.877 34.627 15.7711 34.627 15.6502C34.627 15.378 34.1582 15.3478 33.9011 15.6048C33.7651 15.7409 33.7197 15.7409 33.7197 15.6048C33.7197 15.499 33.6139 15.4234 33.4929 15.4234C33.3114 15.4234 33.2661 15.6653 33.2661 16.7086Z" fill="white"/>
<path d="M39.0876 15.8014C37.9989 16.875 39.4052 18.629 40.6451 17.752C41.265 17.3286 40.8719 17.0111 40.2217 17.4193C39.8739 17.6461 39.4203 17.4496 39.3447 17.0262C39.2993 16.8296 39.4354 16.7842 40.2066 16.7842C41.008 16.7842 41.129 16.754 41.129 16.4969C41.129 16.3457 40.9929 16.0433 40.8114 15.8165C40.388 15.2873 39.6017 15.2722 39.0876 15.8014ZM40.4939 16.2096C40.5392 16.4365 40.4334 16.4818 39.9344 16.4818C39.3447 16.4818 39.133 16.2701 39.4203 15.9677C39.632 15.756 40.4485 15.9526 40.4939 16.2096Z" fill="white"/>
<path d="M45.8165 15.7258C45.6501 15.8921 45.514 16.0887 45.514 16.1492C45.514 16.4516 45.9525 16.8145 46.4213 16.9203C46.7388 16.9808 46.9505 17.1169 46.9505 17.2379C46.9505 17.5403 46.4667 17.6159 46.1794 17.374C45.6048 16.9052 45.2419 17.253 45.7862 17.7369C46.255 18.1754 47.2076 18.0393 47.4949 17.5252C47.7217 17.0867 47.4042 16.6633 46.7237 16.4818C46.391 16.3911 46.1189 16.255 46.1189 16.1643C46.1189 15.9224 46.5876 15.8165 46.89 15.998C47.2681 16.2399 47.4798 16.2248 47.4798 15.9526C47.4798 15.4082 46.3003 15.2419 45.8165 15.7258Z" fill="white"/>
</svg>
