<svg width="400" height="130" viewBox="0 0 400 130" fill="none" xmlns="http://www.w3.org/2000/svg">
  <path fill-rule="evenodd" clip-rule="evenodd" d="M0.00157035 17.3575V34.7151H7.17643H14.3513V17.3575V0H7.17643H0.00157035V17.3575ZM36.2927 51.6806C24.8071 63.1906 24.4021 63.6602 23.0096 67.0836C21.2753 71.3468 21.3313 77.1268 23.1492 81.5015C24.4721 84.685 25.4486 85.8044 36.6481 96.9775L47.311 107.615L52.1846 102.747L57.0581 97.8788L46.5043 87.294C35.3048 76.0614 35.4274 76.2069 35.4274 74.1334C35.4274 72.0599 35.305 72.2053 46.5036 60.9735L57.0567 50.3895L52.2417 45.5757C49.5935 42.9284 47.3731 40.7622 47.3074 40.7622C47.242 40.7622 42.2853 45.6756 36.2927 51.6806ZM370.516 42.8014C361.234 44.6424 354.04 51.3575 351.635 60.4252C351.132 62.3218 351.058 63.0562 351.054 66.1826C351.049 69.36 351.116 70.0198 351.645 72.0057C353.008 77.131 356.217 82.0523 360.093 84.9623C362.024 86.4123 368.162 89.9017 368.379 89.6728C368.595 89.445 374.873 78.6887 375.033 78.2728C375.098 78.1035 373.94 77.3136 372.042 76.2329C366.715 73.1984 365.009 70.9439 364.836 66.7073C364.763 64.9178 364.833 64.2898 365.24 63.0676C367.628 55.9002 376.744 53.9006 382.045 59.3813C382.585 59.9395 383.483 61.3451 384.137 62.6551L385.283 64.9507H392.641C396.689 64.9507 400 64.9095 400 64.8591C400 64.8088 399.483 63.4732 398.851 61.8916C396.122 55.0641 394.452 52.2591 391.331 49.2654C389.019 47.0472 387.527 46.0169 384.686 44.6781C381.383 43.1217 379.643 42.7454 375.336 42.6558C373.302 42.6137 371.132 42.6791 370.516 42.8014ZM302.243 43.0395C287.933 44.1242 276.11 55.0758 273.874 69.3181C273.409 72.2801 273.522 77.7532 274.104 80.4045C276.725 92.3597 285.407 101.442 297.031 104.39C307.572 107.063 318.646 104.147 326.427 96.6496C330.22 92.9958 332.817 88.9375 334.394 84.201C335.715 80.2354 335.985 78.5261 335.983 74.1334C335.982 69.706 335.666 67.7105 334.368 63.9429C332.748 59.2391 330.244 55.3253 326.589 51.7823C320.049 45.4436 311.417 42.3439 302.243 43.0395ZM0.0569517 74.1894L0.113678 105.377L7.23248 105.436L14.3513 105.495V74.2486V43.0019H7.17576H0L0.0569517 74.1894ZM99.777 43.3622C95.7142 44.0966 90.9429 46.0689 87.4452 48.4595C85.2181 49.9818 81.9082 53.1853 80.1252 55.5441C78.3598 57.8801 75.9934 62.5785 75.2185 65.2867C74.036 69.42 73.995 70.199 73.9937 88.5234L73.9923 105.489H81.1566H88.3212L88.4006 88.5234C88.471 73.5095 88.5234 71.397 88.8566 70.1598C90.6263 63.5848 95.8317 58.7867 102.47 57.6115L104.398 57.27L107.921 50.3868L111.443 43.5033L110.823 43.3492C110.482 43.2644 108.286 43.1553 105.943 43.1065C102.759 43.0402 101.201 43.1049 99.777 43.3622ZM144.059 43.3618C139.919 44.0998 135.544 45.879 131.84 48.3316C130.765 49.0434 128.851 50.6708 127.451 52.0647C122.821 56.6736 120.125 61.6759 118.698 68.3103C118.121 70.9878 118.121 77.2791 118.698 79.9566C120.039 86.193 122.679 91.276 126.849 95.653C131.458 100.491 137.675 103.805 144.225 104.915C147.006 105.386 151.72 105.397 154.569 104.939C166.108 103.084 175.751 94.7423 179.328 83.5199C180.302 80.4652 180.718 77.6526 180.718 74.1334C180.718 67.7573 179.057 62.1946 175.594 56.9739C173.102 53.2177 170.427 50.5639 166.557 48.0082C162.978 45.6451 158.821 44.0149 154.654 43.3398C152.052 42.9181 146.483 42.9298 144.059 43.3618ZM221.862 43.3154C210.185 45.5365 201.084 53.3716 197.423 64.355C195.849 69.076 195.858 68.934 195.855 88.1314L195.853 105.377H203.028H210.203L210.316 88.1314L210.43 70.8859L210.952 69.3181C212.842 63.6374 217.241 59.4098 222.871 57.8642C224.879 57.3128 229.379 57.3067 231.384 57.8525C237.028 59.3896 241.386 63.5796 243.306 69.3181L243.831 70.8859L243.945 88.1314L244.059 105.377H251.234H258.409V88.1314C258.409 72.4911 258.371 70.6879 258.007 68.7582C255.952 57.8823 248.697 49.0822 238.425 45.0062C234.833 43.5811 232.614 43.1817 227.803 43.0955C224.79 43.0413 222.944 43.1096 221.862 43.3154ZM152.869 57.6924C157.861 58.7224 162.251 62.0945 164.466 66.6007C165.874 69.4657 166.244 71.0315 166.244 74.1334C166.244 77.2376 165.874 78.8009 164.461 81.6749C162.24 86.1937 157.881 89.5404 152.869 90.5745C147.288 91.7259 141.813 90.0804 137.658 86.0037C133.983 82.3985 132.267 77.5962 132.775 72.3435C133.142 68.5524 134.839 65.0515 137.662 62.2631C141.775 58.2003 147.292 56.5419 152.869 57.6924ZM307.931 57.6592C311.41 58.3242 314.105 59.7753 316.704 62.3832C318.748 64.4336 319.762 66.0139 320.66 68.5508C321.949 72.1894 321.949 76.0775 320.66 79.7161C319.748 82.2926 318.74 83.8516 316.592 86.0091C313.568 89.0475 310.017 90.6325 305.709 90.8677C297.777 91.3006 290.73 86.2219 288.53 78.488C287.818 75.9839 287.82 72.2788 288.534 69.7661C289.38 66.7893 290.64 64.6717 292.938 62.3662C294.488 60.8105 295.371 60.1296 296.749 59.4263C300.638 57.4427 304.01 56.9098 307.931 57.6592ZM379.022 87.9397C377.18 91.0948 375.647 93.7891 375.616 93.9273C375.585 94.0655 377.014 95.0111 378.792 96.0286C382.558 98.1847 383.757 99.2851 384.934 101.663C385.744 103.302 385.762 103.394 385.762 105.925C385.762 108.372 385.723 108.595 385.045 110.026C383.112 114.101 378.66 116.503 374.377 115.781C370.798 115.178 368.197 113.075 366.427 109.352L365.443 107.281H358.06H350.677L351.206 108.681C354.013 116.114 356.352 120.18 359.522 123.142C370.45 133.354 387.732 131.28 395.895 118.777C397.351 116.548 398.297 114.376 399.044 111.548C399.524 109.731 399.611 108.902 399.62 106.049C399.632 102.28 399.357 100.691 398.127 97.4198C396.897 94.1468 395.492 92.0276 392.713 89.2499C390.209 86.7473 389.882 86.5207 383.395 82.7914L382.372 82.2035L379.022 87.9397Z" fill="white"/>
</svg>
