<svg width="42" height="17" viewBox="0 0 42 17" fill="none" xmlns="http://www.w3.org/2000/svg">
<path d="M3.33545 0.0794059C3.46792 0.119887 3.64661 0.19151 3.72671 0.238219C3.91463 0.347208 4.1765 0.586982 4.32129 0.78939C4.32524 0.794773 4.32907 0.799979 4.33279 0.805018L4.33827 0.812437C4.38547 0.876336 4.4122 0.912525 4.408 0.944571C4.40251 0.986422 4.34427 1.02121 4.20995 1.10142C4.19557 1.11001 4.18032 1.11912 4.16417 1.12881C4.12654 1.15276 4.08638 1.17735 4.05084 1.19911C4.00784 1.22544 3.97155 1.24767 3.95468 1.2596C3.90847 1.29074 3.88999 1.2814 3.81913 1.18798C3.56651 0.85167 3.30156 0.683516 2.94419 0.630578C2.41122 0.546502 1.97684 0.733339 1.78583 1.12258C1.70881 1.2814 1.70881 1.77963 1.78891 1.94156C1.86593 2.10348 2.10315 2.32457 2.34653 2.46782C2.45743 2.53632 2.55602 2.58926 2.56218 2.58926C2.57758 2.58926 3.12288 2.84772 3.46176 3.01587C4.22579 3.39266 4.63245 3.82239 4.768 4.39536C4.82037 4.61956 4.82037 5.0524 4.768 5.26727C4.6232 5.85892 4.17958 6.28242 3.50797 6.46926C3.28924 6.53154 3.16601 6.54399 2.83637 6.54399C2.10007 6.54399 1.54553 6.33536 1.09882 5.89006C0.833877 5.62537 0.605902 5.27661 0.673679 5.2299C0.747617 5.18008 1.19741 4.95276 1.20357 4.9621C1.487 5.40428 1.67492 5.59423 1.99224 5.75927C2.50981 6.03019 3.34161 5.98971 3.73595 5.6752C3.91771 5.53195 4.05635 5.30775 4.10256 5.08977C4.21346 4.55728 3.97625 4.08085 3.44019 3.77568C3.24919 3.66669 3.06742 3.57327 2.83945 3.47051C2.01073 3.09372 1.74886 2.93491 1.46543 2.64531C1.13887 2.309 0.987915 1.7952 1.06801 1.28451C1.15736 0.699086 1.52397 0.281813 2.13087 0.0794059C2.44511 -0.0264686 2.99041 -0.0264686 3.33545 0.0794059Z" fill="white"/>
<path d="M11.0219 0.0918625C11.3855 0.188395 11.598 0.275586 11.8507 0.434398C11.977 0.512247 12.0879 0.586983 12.0971 0.599439C12.1064 0.611894 12.1649 0.664831 12.2296 0.714655C12.3651 0.823643 12.6516 1.17864 12.6516 1.23469C12.6516 1.26894 12.4576 1.42152 12.2327 1.56165C12.1618 1.60525 12.1526 1.60213 12.0786 1.5056C11.7829 1.1257 11.4409 0.889037 10.9418 0.717769C10.7447 0.649262 10.6738 0.643034 10.1716 0.643034C9.64175 0.643034 9.60478 0.646148 9.3614 0.730225C8.66823 0.973114 8.19072 1.38727 7.89805 2.00695C7.75941 2.29655 7.70396 2.47716 7.64542 2.81969C7.58689 3.16846 7.58689 3.38021 7.64542 3.72897C7.82411 4.7846 8.39713 5.48213 9.3614 5.81844C9.60478 5.90251 9.64175 5.90563 10.1716 5.90563C10.6984 5.90563 10.7385 5.90251 10.9726 5.81844C11.3023 5.70322 11.4964 5.59735 11.749 5.39494C11.9215 5.25793 12.1372 5.02749 12.2234 4.88736C12.245 4.85622 12.7133 5.16451 12.7348 5.22678C12.7533 5.27661 12.6178 5.46033 12.4237 5.65651C11.8137 6.26373 11.0959 6.54399 10.1501 6.54399C9.78347 6.54399 9.65407 6.53154 9.38605 6.46614C9.0102 6.37272 8.97015 6.35715 8.59122 6.16409C7.75017 5.73125 7.17099 4.94341 6.97074 3.95317C6.90604 3.63244 6.90604 2.91623 6.97074 2.59549C7.17099 1.60213 7.74709 0.817416 8.59122 0.384576C8.96707 0.19151 9.00712 0.175939 9.37065 0.0856342C9.65407 0.0108993 9.72185 0.00778467 10.2333 0.0171266C10.6676 0.0264686 10.8402 0.0420389 11.0219 0.0918625Z" fill="white"/>
<path d="M17.3313 0.200851C17.3005 0.126116 17.2728 0.0544955 17.2728 0.0358116C17.2728 0.0202417 17.2451 0.00467194 17.2081 0.00467194C17.1619 0.00467194 17.128 0.0482677 17.0664 0.182168C17.0311 0.269931 16.9839 0.377016 16.9563 0.439604L16.9462 0.462424C16.9216 0.515361 16.9031 0.568299 16.9031 0.577641C16.9031 0.586983 16.8784 0.65549 16.8446 0.730225C16.7583 0.932632 16.7213 1.02294 16.5796 1.37482C16.4102 1.79831 16.3516 1.93533 16.3177 2.01318C16.3023 2.04743 16.2469 2.18756 16.1945 2.32457C16.1421 2.46159 16.0805 2.61417 16.0559 2.66711C16.0158 2.75741 15.8433 3.1778 15.7324 3.46117C15.7145 3.5064 15.6696 3.61683 15.6145 3.75212L15.6142 3.75284C15.5746 3.8502 15.5297 3.96038 15.4859 4.06839C15.4676 4.113 15.448 4.16074 15.4277 4.21012L15.4252 4.21634C15.3299 4.4482 15.2204 4.71472 15.1625 4.86245C15.0053 5.25481 14.8482 5.63471 14.7158 5.95234C14.5987 6.23882 14.5309 6.41943 14.5309 6.45369C14.5309 6.48794 15.1193 6.49105 15.1625 6.4568C15.1809 6.44434 15.2919 6.189 15.4058 5.89006C15.5229 5.59112 15.6369 5.30152 15.6585 5.2517C15.68 5.19876 15.7416 5.04618 15.794 4.90916C15.8464 4.77215 15.908 4.61645 15.9296 4.56663C15.9542 4.51369 16.0097 4.37356 16.0559 4.25523C16.1298 4.05282 16.2038 3.86598 16.3023 3.62932C16.3424 3.53279 16.7614 2.46159 16.8815 2.15331C16.9154 2.05989 16.9555 1.96647 16.9647 1.9509C16.977 1.93221 17.0232 1.79209 17.0725 1.6395C17.1218 1.4838 17.1711 1.34679 17.1834 1.33122C17.1958 1.31565 17.2358 1.39973 17.2697 1.51806C17.3344 1.72669 17.5162 2.22493 17.5993 2.41799C17.6209 2.46782 17.6794 2.61728 17.7318 2.75119C17.7811 2.88197 17.852 3.05324 17.8858 3.12797C17.9228 3.20582 17.9505 3.28056 17.9505 3.2899C17.9505 3.30236 17.9721 3.35529 17.9968 3.40823C18.0214 3.46428 18.083 3.61998 18.1354 3.757C18.1878 3.89401 18.2432 4.03414 18.2586 4.06839C18.274 4.10265 18.3449 4.27703 18.4157 4.45764C18.567 4.85043 18.6145 4.96872 18.7657 5.34529L18.7697 5.35536C18.7961 5.42107 18.8256 5.49459 18.8594 5.57866C18.9734 5.86203 19.0935 6.16097 19.1274 6.24816L19.1333 6.26307C19.1712 6.35825 19.1928 6.41255 19.2323 6.44283C19.2849 6.48305 19.3692 6.48089 19.5655 6.47586L19.5803 6.47548C19.6048 6.47469 19.6276 6.47408 19.649 6.4735C19.7857 6.46982 19.8587 6.46786 19.8828 6.43216C19.9104 6.39128 19.8738 6.30614 19.7953 6.12347L19.7948 6.12223L19.7941 6.12071C19.7841 6.09735 19.7734 6.0724 19.762 6.04576C19.7072 5.92055 19.6377 5.75253 19.5862 5.62805L19.5855 5.62627C19.5707 5.59048 19.5574 5.55835 19.5464 5.53195C19.4971 5.41051 19.4447 5.28595 19.4293 5.2517C19.419 5.22881 19.395 5.17118 19.3673 5.1048L19.367 5.10409C19.3533 5.07132 19.3388 5.03644 19.3246 5.00258C19.2985 4.93582 19.2491 4.8178 19.1982 4.69633C19.1708 4.63091 19.1429 4.56428 19.1182 4.50435C19.0899 4.43614 19.0573 4.35708 19.0252 4.27914C18.9766 4.16142 18.9291 4.04615 18.8994 3.97497C18.8501 3.85353 18.7978 3.72897 18.7823 3.69472C18.7485 3.61375 18.6468 3.36775 18.3973 2.76053C18.1323 2.11282 18.046 1.91042 17.9968 1.7952C17.9899 1.77834 17.9783 1.75075 17.9639 1.71624L17.9636 1.71547L17.9633 1.71487C17.9324 1.64108 17.8885 1.53615 17.8489 1.43709C17.7903 1.29074 17.6979 1.06653 17.6425 0.93886C17.6057 0.854211 17.5595 0.742185 17.5199 0.646345L17.5192 0.644722C17.4994 0.596645 17.4812 0.552719 17.4669 0.518476C17.4574 0.495888 17.4472 0.471345 17.4366 0.446037C17.3992 0.356204 17.3578 0.25673 17.3313 0.200851Z" fill="white"/>
<path d="M30.6861 0.360712C30.709 0.416456 30.7334 0.475896 30.7572 0.534045C30.8104 0.663976 30.8764 0.819692 30.9253 0.935109C30.9335 0.95467 30.9413 0.973074 30.9485 0.989999C30.9578 1.01202 30.966 1.03154 30.9729 1.04785C30.9991 1.11506 31.0319 1.19161 31.0575 1.25133C31.071 1.28286 31.0825 1.30982 31.09 1.32811C31.1115 1.37793 31.1793 1.53986 31.2378 1.68621C31.4011 2.08791 31.4442 2.19379 31.4751 2.26229C31.4905 2.29655 31.5428 2.42111 31.5921 2.54255C31.6218 2.61371 31.6692 2.7288 31.7178 2.84649C31.75 2.92449 31.7826 3.00367 31.8109 3.07192C31.8357 3.13191 31.8635 3.19839 31.8909 3.26386L31.8917 3.26566C31.9423 3.3865 31.9914 3.50372 32.0173 3.57016C32.0315 3.60398 32.046 3.63882 32.0596 3.67156C32.0875 3.73828 32.1117 3.7963 32.122 3.81927C32.1528 3.8909 32.2637 4.1587 32.3993 4.48878C32.4516 4.61645 32.5071 4.75035 32.5225 4.7846C32.5379 4.81886 32.5934 4.95276 32.6457 5.08043C32.6981 5.2081 32.7628 5.35757 32.7874 5.41362C32.8121 5.46656 32.8306 5.5195 32.8306 5.52884C32.8306 5.53818 32.8583 5.60669 32.8891 5.68142C32.9101 5.72573 32.944 5.8058 32.98 5.89065L32.9805 5.89176C33.0025 5.94371 33.0252 5.99741 33.0462 6.04576C33.0986 6.17343 33.1541 6.30422 33.1695 6.33224C33.2465 6.46926 33.2188 6.48171 32.8645 6.48171C32.6273 6.48171 32.5194 6.46926 32.5009 6.44123C32.4825 6.41009 32.1621 5.61914 31.9372 5.04929C31.9064 4.97144 31.7893 4.67873 31.6753 4.39536C31.5613 4.11199 31.4442 3.81927 31.4134 3.74143C31.3826 3.66358 31.2378 3.29924 31.09 2.9318L31.0565 2.84863C30.8426 2.31645 30.7575 2.10492 30.6812 1.89071C30.6311 1.74994 30.5847 1.60782 30.5078 1.37236L30.4985 1.34368C30.48 1.28451 30.4153 1.40284 30.3845 1.5492C30.366 1.6395 30.2612 1.91976 30.1195 2.27786C30.1162 2.2863 30.1122 2.29627 30.1078 2.30757C30.0709 2.40059 29.9982 2.58392 29.9378 2.74496C29.8669 2.92557 29.796 3.09995 29.7806 3.1342C29.7375 3.23074 28.7609 5.70322 28.7116 5.84335C28.687 5.91186 28.6531 6.00216 28.6346 6.04576C28.6246 6.07414 28.6015 6.13155 28.5764 6.19394L28.5761 6.19458C28.5628 6.22784 28.5488 6.26248 28.536 6.29487L28.4713 6.46614L28.1663 6.47548C27.9969 6.4786 27.849 6.47237 27.8367 6.45991C27.8213 6.44434 27.8521 6.32913 27.9045 6.20146C27.9568 6.07378 28.0246 5.90563 28.0554 5.82778C28.0862 5.74993 28.1694 5.54752 28.2403 5.37626C28.3111 5.20499 28.3943 5.00258 28.4251 4.92473C28.4559 4.84688 28.5422 4.62891 28.6192 4.44207C28.6852 4.27937 28.7963 4.00015 28.8869 3.77271L28.9303 3.66358C28.9622 3.58608 28.9938 3.50858 29.0227 3.43749C29.0833 3.28865 29.1324 3.16792 29.1491 3.1342C29.1922 3.03456 29.3832 2.57058 29.4726 2.34014C29.5927 2.03186 29.756 1.63327 29.8114 1.50872C29.8453 1.43398 29.8731 1.36547 29.8731 1.35613C29.8731 1.34679 29.8946 1.29385 29.9162 1.24091C29.9778 1.1039 30.1935 0.571412 30.3136 0.26313C30.3937 0.0513809 30.4245 0.00467194 30.4769 0.00467194C30.5231 0.00467194 30.5539 0.035812 30.5816 0.104319C30.5963 0.142324 30.6378 0.243319 30.6861 0.360712Z" fill="white"/>
<path d="M22.9414 2.97851C22.9506 4.56974 22.9599 5.8776 22.966 5.88072C22.9691 5.88694 23.6376 5.89006 24.4509 5.89006H25.9328L25.9143 6.46614H22.279L22.2698 3.30547C22.2667 1.56788 22.2698 0.126117 22.279 0.104319C22.2882 0.0762936 22.3745 0.0669517 22.6086 0.0731795L22.926 0.082521L22.9414 2.97851Z" fill="white"/>
<path fill-rule="evenodd" clip-rule="evenodd" d="M39.1954 0.67106C38.875 0.347208 38.5546 0.197737 37.9908 0.113661C37.7659 0.0794068 37.3963 0.0669512 36.6292 0.0669512H35.5725V6.48171H36.2194L36.2256 5.22678L36.2348 3.97497L36.9619 3.96563L37.6858 3.9594L37.9477 4.41404C38.0894 4.66627 38.2342 4.9185 38.2681 4.97455C38.302 5.03061 38.456 5.29529 38.607 5.56309C38.6736 5.67893 38.7403 5.79535 38.7974 5.89522L38.8006 5.90072C38.874 6.02909 38.9314 6.12924 38.952 6.16409C38.989 6.22637 39.0291 6.3011 39.0414 6.32601C39.1092 6.47237 39.14 6.48171 39.5158 6.48171C39.713 6.48171 39.8824 6.47237 39.8948 6.46303C39.9102 6.44746 39.7838 6.22325 39.3587 5.50081C39.3201 5.43581 39.2826 5.37189 39.2506 5.31744L39.2503 5.3168C39.2059 5.24115 39.1723 5.1839 39.1615 5.16762C39.1461 5.13959 39.0845 5.03372 39.026 4.93407C38.9705 4.83443 38.8072 4.55417 38.6624 4.31128C38.4129 3.88778 38.3852 3.80371 38.4868 3.80371C38.5423 3.80371 38.8966 3.62621 38.952 3.56704C38.9767 3.54213 39.0044 3.52345 39.0167 3.52345C39.0814 3.52345 39.4018 3.16223 39.4881 2.99096C39.6483 2.68268 39.676 2.55812 39.6914 2.10037C39.7068 1.70489 39.7007 1.63327 39.639 1.43398C39.5374 1.09456 39.4326 0.913949 39.1954 0.67106ZM36.1904 0.695973C36.1627 0.733341 36.1535 1.05096 36.1596 2.04743L36.1689 3.35218L36.9082 3.36152C37.509 3.37087 37.6938 3.36152 37.8941 3.31793C38.4764 3.19648 38.7937 2.90377 38.9077 2.38063C38.9693 2.10037 38.9693 1.95713 38.9077 1.67687C38.7967 1.17241 38.5133 0.889039 37.9711 0.745797C37.6538 0.66172 36.252 0.624352 36.1904 0.695973Z" fill="white"/>
<path d="M17.3868 4.32374C17.4576 4.49189 17.5716 4.76281 17.6394 4.92473L17.7626 5.22056L17.2204 5.2299C16.9216 5.23301 16.672 5.2299 16.6628 5.22056C16.6535 5.21122 16.6751 5.13959 16.709 5.05552C16.746 4.97455 16.8107 4.81886 16.8569 4.70675C16.8785 4.65435 16.9014 4.59718 16.922 4.54606C16.9453 4.4879 16.9656 4.43744 16.977 4.41093L16.981 4.40108C17.0029 4.34734 17.0368 4.26416 17.0571 4.20852C17.1619 3.92826 17.2296 3.95006 17.3868 4.32374Z" fill="white"/>
<path d="M31.0437 5.22367C31.0437 5.19876 30.8034 4.60711 30.6309 4.19918C30.5724 4.06528 30.5385 4.02168 30.4923 4.02168C30.4909 4.02168 30.4895 4.02168 30.4882 4.02167C30.4787 4.02163 30.4705 4.0216 30.4629 4.02347C30.4206 4.03383 30.3924 4.10287 30.2073 4.55582L30.1965 4.5822C30.1746 4.6359 30.152 4.69126 30.1305 4.74417L30.1302 4.74481L30.13 4.74542C30.0793 4.86995 30.0342 4.98076 30.0148 5.02438C30.0125 5.02983 30.0102 5.03514 30.008 5.04031L30.0056 5.04584C29.976 5.11509 29.9572 5.15916 29.9708 5.1872C29.9945 5.23627 30.1176 5.23624 30.4559 5.23614L30.5046 5.23613C30.8004 5.23613 31.0437 5.2299 31.0437 5.22367Z" fill="white"/>
<path d="M4.45793 10.66C4.44253 10.6475 4.30389 10.607 4.14986 10.5666C3.92496 10.5105 3.77092 10.4949 3.33346 10.4887C3.03771 10.4856 2.7666 10.4856 2.73271 10.4949C2.14429 10.6351 1.95944 10.6973 1.64212 10.8686C0.443707 11.5194 -0.18784 12.8927 0.049376 14.3376C0.237301 15.4742 0.979764 16.4052 2.0149 16.7976C2.47701 16.972 2.64337 17 3.24103 17C3.74012 17 3.84794 16.9907 4.10365 16.9253C4.46409 16.835 4.94161 16.6045 5.22812 16.3865C5.51771 16.1623 5.872 15.7451 5.82579 15.6859C5.80422 15.6641 5.68716 15.5769 5.56393 15.4928L5.34211 15.3403L5.21272 15.5022C4.92929 15.8541 4.52879 16.1281 4.06668 16.29C3.8233 16.3741 3.78325 16.3772 3.27184 16.3772C2.76044 16.3772 2.7173 16.371 2.45852 16.2869C1.65136 16.0222 1.08759 15.4368 0.816485 14.5805C0.739466 14.3407 0.733299 14.2846 0.733299 13.7459C0.733299 13.2072 0.739466 13.1511 0.816485 12.9114C1.08759 12.055 1.65136 11.4696 2.45852 11.2049C2.7173 11.1208 2.76044 11.1146 3.27184 11.1146C3.78325 11.1146 3.8233 11.1177 4.06668 11.2018C4.47642 11.345 4.70439 11.4883 5.00323 11.7966L5.27433 12.0706L5.43761 11.9585C5.52387 11.8962 5.63786 11.8121 5.68715 11.7717L5.77958 11.7L5.62554 11.5132C5.33287 11.1582 4.8954 10.8219 4.58733 10.7191C4.53187 10.7005 4.47641 10.6755 4.45793 10.66Z" fill="white"/>
<path fill-rule="evenodd" clip-rule="evenodd" d="M10.413 10.6382C10.4469 10.7285 10.5116 10.8873 10.5578 10.9901C10.5714 11.0224 10.5853 11.0557 10.5984 11.0872L10.6 11.0909C10.6278 11.1577 10.6522 11.2162 10.6626 11.2392C10.7326 11.4102 10.783 11.5316 10.8401 11.6692C10.8734 11.7495 10.909 11.8354 10.9522 11.9398C11.0071 12.0686 11.0792 12.2433 11.1395 12.3893L11.1402 12.391C11.1525 12.4207 11.1643 12.4492 11.1753 12.4759C11.1859 12.5015 11.1958 12.5254 11.2048 12.547C11.2661 12.696 11.3281 12.8457 11.3875 12.9891L11.3903 12.996C11.4553 13.1528 11.5171 13.3021 11.5714 13.4345C11.6114 13.5279 11.6977 13.7303 11.7593 13.886C11.8641 14.1383 12.0335 14.5462 12.2122 14.9759C12.2345 15.0313 12.2622 15.0989 12.2846 15.1537L12.2864 15.1578C12.2972 15.1844 12.3069 15.2079 12.3139 15.225C12.3263 15.2539 12.3492 15.3088 12.3745 15.3699C12.393 15.4144 12.4128 15.462 12.4309 15.5053C12.4896 15.643 12.6039 15.9201 12.7272 16.2192L12.7281 16.2213L12.7523 16.28C12.7826 16.3536 12.8133 16.4281 12.8437 16.5018C12.8589 16.5379 12.8752 16.5771 12.8911 16.6152L12.8916 16.6165L12.8919 16.6173L12.8924 16.6184C12.9211 16.6875 12.9482 16.7525 12.9639 16.7882C12.9885 16.8412 13.007 16.9004 13.007 16.919C13.007 16.9689 12.3447 16.9657 12.3077 16.9128C12.2923 16.8941 12.206 16.6917 12.1198 16.4706C11.9072 15.9319 11.787 15.6299 11.7439 15.5551C11.71 15.4897 11.6915 15.4897 10.2775 15.4897H8.84801L8.79872 15.6049C8.78846 15.6291 8.77525 15.6597 8.76112 15.6924C8.73711 15.748 8.71023 15.8102 8.69089 15.8572C8.657 15.9288 8.63236 16.0035 8.63236 16.0191C8.63236 16.0347 8.59846 16.125 8.55533 16.2184C8.5122 16.3118 8.47832 16.4083 8.47832 16.4301C8.47832 16.4551 8.466 16.4862 8.45367 16.5049C8.43827 16.5204 8.40746 16.5827 8.38589 16.6419C8.36433 16.7011 8.32428 16.7976 8.29963 16.8505L8.2565 16.9533H7.93611C7.7605 16.9533 7.61571 16.9408 7.61571 16.9284C7.61571 16.9159 7.665 16.7851 7.72661 16.6419C7.75863 16.5618 7.79064 16.4837 7.81459 16.4252L7.81551 16.4229C7.83487 16.3757 7.8488 16.3416 7.85293 16.3305C7.86217 16.3056 7.89605 16.2246 7.92686 16.153C7.95767 16.0783 7.9854 16.0098 7.9854 16.0004C7.9854 15.9911 8.00388 15.9381 8.02853 15.8852C8.08706 15.7575 8.16099 15.5769 8.23185 15.3963C8.33352 15.1347 8.68781 14.2597 8.8172 13.9483C8.88805 13.777 9.03593 13.4127 9.14684 13.1387C9.54118 12.1609 9.61511 11.9803 9.81844 11.4883C9.92935 11.2143 10.0649 10.8748 10.1204 10.7347C10.2005 10.523 10.2313 10.4763 10.2867 10.4763C10.3391 10.4763 10.3668 10.5105 10.413 10.6382ZM10.1284 12.0239C10.0852 12.1578 10.0205 12.3415 9.98663 12.4287C9.94967 12.519 9.89421 12.6591 9.86341 12.7401C9.8484 12.781 9.81367 12.8693 9.77024 12.9796C9.72449 13.0958 9.6691 13.2365 9.61695 13.3722C9.5122 13.6369 9.41362 13.8829 9.39821 13.9172C9.33352 14.0573 9.02852 14.8669 9.02852 14.8981C9.02852 14.9199 9.4167 14.9292 10.2146 14.9292C10.3379 14.9292 10.4491 14.9295 10.5493 14.9298C11.1561 14.9315 11.3571 14.932 11.3903 14.8568C11.4068 14.8196 11.3821 14.7638 11.3453 14.6804C11.333 14.6524 11.3192 14.6213 11.3052 14.5867C11.2528 14.459 11.1851 14.2909 11.1542 14.213C11.1234 14.1352 11.0064 13.8424 10.8924 13.5591L10.8919 13.558C10.7781 13.275 10.6644 12.9922 10.6398 12.9238C10.6182 12.8584 10.5781 12.7681 10.5566 12.7214C10.5319 12.6778 10.4518 12.4536 10.3748 12.2232C10.2978 11.9959 10.2269 11.8028 10.2177 11.7935C10.2115 11.7841 10.1684 11.8869 10.1284 12.0239Z" fill="white"/>
<path fill-rule="evenodd" clip-rule="evenodd" d="M33.417 10.7098C33.3955 10.6569 33.3677 10.5852 33.3554 10.5448C33.3184 10.414 33.2199 10.4607 33.1336 10.6537C33.0566 10.8375 32.8224 11.4042 32.7238 11.6596C32.6037 11.9647 32.4404 12.3664 32.385 12.491C32.3511 12.5657 32.3233 12.6342 32.3233 12.6436C32.3233 12.6529 32.3018 12.7058 32.2771 12.7588C32.2525 12.8148 32.1816 12.983 32.12 13.1387C31.7996 13.939 31.6548 14.294 31.6148 14.3843C31.5994 14.4185 31.5347 14.5711 31.4761 14.7268C31.1927 15.4368 31.0294 15.8354 30.9709 15.9662C30.9339 16.044 30.9062 16.1281 30.9062 16.1499C30.9062 16.1748 30.8939 16.2059 30.8816 16.2246C30.8662 16.2402 30.8353 16.3025 30.8138 16.3616C30.7922 16.4208 30.7398 16.5454 30.7029 16.6326C30.6628 16.7229 30.6228 16.8318 30.6105 16.8754L30.592 16.9564L31.2482 16.9377L31.3868 16.5952C31.4638 16.4052 31.5408 16.2091 31.5562 16.1592C31.5747 16.1063 31.6394 15.9381 31.701 15.7856L31.815 15.5053H34.7079L34.828 15.8011C35.1053 16.4955 35.2624 16.8786 35.2901 16.9128C35.3117 16.9408 35.4226 16.9533 35.6567 16.9533C35.6749 16.9533 35.6921 16.9533 35.7085 16.9533C35.8773 16.9536 35.9534 16.9538 35.9729 16.9203C35.9888 16.8928 35.9667 16.8427 35.9265 16.7516L35.9255 16.7494C35.9213 16.7399 35.917 16.7301 35.9124 16.7197C35.8077 16.4706 35.515 15.77 35.3764 15.4274C35.3561 15.3808 35.3191 15.2915 35.2782 15.1927L35.2766 15.1888C35.2497 15.1239 35.2212 15.0551 35.1946 14.9915C35.1238 14.8296 34.9759 14.4715 34.865 14.1974C34.7541 13.9234 34.6185 13.5996 34.5661 13.4812C34.5138 13.3598 34.4244 13.1449 34.3659 12.9986C34.3104 12.8522 34.2427 12.6903 34.218 12.6405C34.2112 12.6238 34.1999 12.5967 34.1857 12.5628L34.1851 12.5614L34.1848 12.5607C34.1539 12.4869 34.1099 12.3817 34.0701 12.2823C33.9438 11.9741 33.873 11.8059 33.8144 11.6751L33.8112 11.6673C33.8096 11.6634 33.8079 11.6592 33.806 11.6546C33.7996 11.6392 33.7915 11.6198 33.7821 11.5975L33.7815 11.5961L33.7812 11.5954C33.7503 11.5215 33.7063 11.4164 33.6666 11.317C33.5402 10.9994 33.4725 10.8344 33.417 10.7098ZM32.8427 12.7339C32.9136 12.5719 33.0707 12.1329 33.1662 11.8215C33.1755 11.8028 33.1847 11.7841 33.194 11.7841C33.2001 11.7841 33.2648 11.9616 33.3357 12.1796C33.4065 12.4007 33.4774 12.5906 33.4897 12.6093C33.502 12.6249 33.5236 12.6747 33.5359 12.7183C33.5482 12.7619 33.5914 12.8678 33.6314 12.9581C33.6715 13.0453 33.7054 13.1356 33.7054 13.1511C33.7054 13.1698 33.7208 13.2103 33.7362 13.2415C33.7547 13.2695 33.884 13.5871 34.0258 13.9483C34.1675 14.3064 34.3061 14.6552 34.3338 14.7175C34.3401 14.7325 34.3464 14.7464 34.3522 14.7594C34.3732 14.806 34.3884 14.8399 34.3792 14.8645C34.3548 14.9301 34.1575 14.9299 33.4346 14.9293C33.361 14.9293 33.2819 14.9292 33.197 14.9292C32.2112 14.9292 32.0109 14.923 32.0109 14.8856C32.0109 14.8514 32.7442 12.9519 32.8427 12.7339Z" fill="white"/>
<path fill-rule="evenodd" clip-rule="evenodd" d="M17.7452 10.5852C18.6879 10.7285 19.2332 11.1893 19.415 12.0083C19.6306 12.9674 19.2579 13.8705 18.4908 14.2504C18.0471 14.4683 17.8438 14.5026 16.8826 14.5182L16.0262 14.5306V16.9564L15.3638 16.9377L15.3546 13.777C15.3515 12.0395 15.3546 10.5977 15.3638 10.5759C15.3854 10.5167 17.3416 10.523 17.7452 10.5852ZM15.9602 12.5346C15.9602 11.4696 15.9695 11.1613 16.0003 11.1489C16.0188 11.1395 16.37 11.1364 16.7766 11.1426C17.402 11.1551 17.553 11.1675 17.7501 11.2205C18.1753 11.3388 18.431 11.5381 18.5881 11.8744C18.6651 12.0426 18.6805 12.1267 18.6959 12.3945C18.7298 13.1013 18.5326 13.4937 18.0212 13.7397C17.7409 13.8736 17.5252 13.9016 16.6934 13.9016H15.9602V12.5346Z" fill="white"/>
<path d="M22.619 16.9564V10.5385H22.2955C22.0644 10.5385 21.9659 10.551 21.9566 10.5759C21.9474 10.5977 21.9443 12.0395 21.9474 13.777L21.9566 16.9377L22.619 16.9564Z" fill="white"/>
<path d="M29.5538 11.1302H28.6141C28.0996 11.1302 27.656 11.1395 27.6283 11.1489C27.5852 11.1676 27.579 11.4509 27.579 14.0604V16.9564L26.9166 16.9377L26.9074 14.0324L26.9012 11.1302H24.9604V10.8562C24.9604 10.7036 24.9696 10.5697 24.9819 10.5603C24.9912 10.5479 26.0232 10.5416 27.2678 10.5448L29.5353 10.5541L29.5538 11.1302Z" fill="white"/>
<path d="M39.024 16.3461L38.9932 10.5541L38.6759 10.5448C38.4417 10.5385 38.3555 10.5479 38.3462 10.5759C38.337 10.5977 38.3339 12.0395 38.337 13.777L38.3462 16.9377H41.9815L42 16.3616L40.512 16.3554L39.024 16.3461Z" fill="white"/>
</svg>
