<svg width="108" height="19" viewBox="0 0 108 19" fill="none" xmlns="http://www.w3.org/2000/svg">
<path d="M31.6017 11.9253C31.6017 13.3959 30.7518 14.24 29.0802 14.24H25.082V12.4972H28.6065C29.1218 12.4972 29.3728 12.3201 29.3728 11.8709C29.3728 11.5033 29.094 11.2717 28.4811 10.8497L26.3914 9.27001C25.3327 8.48037 24.8868 7.74507 24.8868 6.87354C24.8868 5.38945 25.7785 4.70867 27.5338 4.70867H31.4345V6.45155H27.9238C27.3805 6.45155 27.1159 6.62844 27.1159 7.09147C27.1159 7.44544 27.3945 7.67705 28.0214 8.08536L30.0971 9.50163C31.156 10.2096 31.6017 11.0674 31.6017 11.9253Z" fill="#C8C7D8"/>
<path d="M39.9743 6.45155H37.4667V14.2402H35.2377V6.45155H32.7301V4.70867H39.9743V6.45155Z" fill="#C8C7D8"/>
<path d="M45.8256 10.8085L44.4604 7.03684L43.0812 10.8085H45.8256ZM46.4107 12.4017H42.482L41.8135 14.2399H39.3892L43.2761 4.70838H45.6166L49.5035 14.2399H47.0794L46.4107 12.4017Z" fill="#C8C7D8"/>
<path d="M53.7526 9.2019C54.9786 9.2019 55.3408 8.77971 55.3408 7.77214C55.3408 6.76457 54.9786 6.34239 53.7526 6.34239H52.7775V9.2019H53.7526ZM57.8484 14.24H55.6055L55.1736 12.4154C54.895 11.149 54.6443 10.8085 53.669 10.7949H52.7775V14.24H50.5484V4.70838H54.5467C56.6224 4.70838 57.5699 5.60708 57.5699 7.56789C57.5699 8.88877 57.0403 9.6921 55.9677 10.0189C56.734 10.3729 57.1101 11.081 57.4165 12.4154L57.8484 14.24Z" fill="#C8C7D8"/>
<path d="M61.9862 9.32444L65.5386 4.70838H68.1996L64.4659 9.32444L68.4504 14.2399H65.7893L61.9862 9.32444ZM61.9862 14.2399H59.7573V4.70838H61.9862V14.2399Z" fill="#C8C7D8"/>
<path d="M82.5906 4.70838L79.6094 14.2399H78.2162L75.8619 6.61466L73.5074 14.2399H72.1003L69.1469 4.70838H70.5121L72.8386 12.7557L75.3045 4.70838H76.419L78.8849 12.7557L81.2254 4.70838H82.5906Z" fill="#C8C7D8"/>
<path d="M88.5532 10.8494L86.7143 6.07012L84.8615 10.8494H88.5532ZM88.9016 11.7618H84.5131L83.5518 14.24H82.1448L86.0317 4.70838H87.383L91.2699 14.24H89.8628L88.9016 11.7618Z" fill="#C8C7D8"/>
<path d="M95.6166 9.3789C97.149 9.3789 97.7201 8.79351 97.7201 7.51348C97.7201 6.2608 97.149 5.66173 95.6166 5.66173H93.875V9.3789H95.6166ZM99.3083 14.2401H98.0127L97.6645 12.6061C97.3161 10.904 96.8842 10.3321 95.5748 10.305H93.875V14.2401H92.5934V4.7085H96.0483C98.0962 4.7085 99.0019 5.59352 99.0019 7.4046C99.0019 8.76615 98.4306 9.59683 97.2326 9.8691C98.1798 10.2233 98.6118 11.0266 98.9461 12.6061L99.3083 14.2401Z" fill="#C8C7D8"/>
<path d="M102.61 5.71607V8.61643H106.929V9.55598H102.61V11.5985C102.61 12.7286 103.112 13.2323 104.254 13.2323H107.5V14.2401H104.059C102.025 14.2401 101.329 13.5865 101.329 11.7074V4.7085H107.5V5.71607H102.61Z" fill="#C8C7D8"/>
<path d="M10.2054 10.7183L8.48778 12.3973C8.48661 12.3983 8.48564 12.3992 8.48428 12.4C8.48 12.4027 8.47514 12.4042 8.4697 12.4042C8.45473 12.4042 8.44268 12.3924 8.44268 12.3778C8.44268 12.3749 8.44307 12.3719 8.44404 12.3692L9.09759 9.9868C9.15319 9.816 9.11178 9.62162 8.97318 9.48615L7.25552 7.80712C7.25435 7.80598 7.25338 7.80503 7.2526 7.8037C7.24988 7.79971 7.24833 7.79477 7.24833 7.78945C7.24833 7.77501 7.26038 7.76304 7.27535 7.76304C7.27846 7.76304 7.28137 7.76361 7.28409 7.76437L9.7216 8.40315C9.89636 8.45768 10.0954 8.41702 10.234 8.28155L11.9517 6.60271C11.9528 6.60176 11.9538 6.60062 11.9552 6.59986C11.9593 6.5972 11.9643 6.59568 11.9698 6.59568C11.9847 6.59568 11.9968 6.60765 11.9968 6.62228C11.9968 6.62513 11.9964 6.62798 11.9954 6.63064L11.3419 9.01324C11.2863 9.18386 11.3277 9.37842 11.4663 9.51389L13.1839 11.1929C13.1849 11.1939 13.1861 11.195 13.1869 11.1962C13.1896 11.2003 13.1911 11.2053 13.1911 11.2104C13.1911 11.225 13.1791 11.237 13.1641 11.237C13.161 11.237 13.1581 11.2364 13.1554 11.2355L10.7179 10.5969C10.5431 10.5424 10.344 10.5828 10.2054 10.7183ZM19.8653 9.32503L15.7624 5.31488C15.6238 5.17941 15.4247 5.13894 15.2502 5.19328L12.5522 5.90047C12.5527 5.90028 12.5518 5.90047 12.5522 5.90047C12.5496 5.90123 12.5459 5.90142 12.543 5.90142C12.5281 5.90142 12.516 5.88964 12.516 5.87501C12.516 5.86569 12.5211 5.85752 12.5284 5.85278C12.823 5.66125 13.2693 5.31488 14.3369 4.2714C14.4356 4.17488 14.4356 4.01813 14.3369 3.92161L10.3987 0.0723906C10.2999 -0.0241302 10.1395 -0.0241302 10.0408 0.0723906L5.93792 4.08254C5.79912 4.21801 5.75772 4.41257 5.81351 4.58338L6.53704 7.2204C6.53685 7.21983 6.53704 7.22078 6.53704 7.2204C6.53782 7.22287 6.53801 7.22648 6.53801 7.22914C6.53801 7.24377 6.52596 7.25555 6.51099 7.25555C6.50127 7.25555 6.49291 7.2508 6.48805 7.24339C6.2923 6.95554 5.93792 6.5193 4.87031 5.476C4.77136 5.37929 4.61118 5.37929 4.51224 5.476L0.57421 9.32503C0.475263 9.42174 0.475263 9.5783 0.57421 9.67501L4.67708 13.6852C4.81568 13.8206 5.01455 13.8611 5.18931 13.8066L7.8873 13.0994C7.88671 13.0996 7.88769 13.0996 7.8873 13.0994C7.88983 13.0986 7.89352 13.0984 7.89644 13.0984C7.91121 13.0984 7.92346 13.1104 7.92346 13.125C7.92346 13.1344 7.9184 13.1425 7.91102 13.1473C7.61651 13.3386 7.17018 13.6852 6.10257 14.7285C6.00382 14.8252 6.00382 14.9817 6.10257 15.0784L10.0408 18.9275C10.1395 19.0242 10.2999 19.0242 10.3987 18.9275L14.5015 14.9173C14.6401 14.7818 14.6816 14.5875 14.626 14.4167L13.9024 11.7796C13.9026 11.7802 13.9024 11.7793 13.9024 11.7796C13.9016 11.7772 13.9014 11.7736 13.9014 11.7709C13.9014 11.7563 13.9135 11.7443 13.9285 11.7443C13.938 11.7443 13.9465 11.7492 13.9512 11.7567C14.1472 12.0445 14.5015 12.4808 15.5691 13.524C15.6679 13.6208 15.8283 13.6208 15.9272 13.524L19.8653 9.67501C19.9642 9.5783 19.9642 9.42174 19.8653 9.32503Z" fill="#C8C7D8"/>
</svg>
