<svg width="78" height="13" viewBox="0 0 78 13" fill="none" xmlns="http://www.w3.org/2000/svg">
<path d="M22.6723 8.1594C22.6723 9.1656 22.0527 9.74319 20.8342 9.74319H17.9196V8.5507H20.4889C20.8645 8.5507 21.0475 8.42954 21.0475 8.12222C21.0475 7.87067 20.8443 7.71219 20.3975 7.42346L18.8741 6.34264C18.1024 5.80236 17.7773 5.29926 17.7773 4.70295C17.7773 3.68752 18.4273 3.22172 19.7069 3.22172H22.5504V4.41422H19.9912C19.5951 4.41422 19.4022 4.53525 19.4022 4.85206C19.4022 5.09425 19.6053 5.25272 20.0623 5.53209L21.5755 6.50111C22.3473 6.98549 22.6723 7.57244 22.6723 8.1594Z" fill="#FAFAFD"/>
<path d="M28.7757 4.41422H26.9477V9.74332H25.3228V4.41422H23.4948V3.22172H28.7757V4.41422Z" fill="#FAFAFD"/>
<path d="M33.0411 7.39531L32.0459 4.81468L31.0405 7.39531H33.0411ZM33.4676 8.48537H30.6037L30.1164 9.74312H28.3492L31.1826 3.22152H32.8888L35.7222 9.74312H33.9551L33.4676 8.48537Z" fill="#FAFAFD"/>
<path d="M38.8196 6.29603C39.7134 6.29603 39.9774 6.00717 39.9774 5.31778C39.9774 4.62839 39.7134 4.33953 38.8196 4.33953H38.1088V6.29603H38.8196ZM41.8054 9.74312H40.1704L39.8555 8.49473C39.6524 7.62828 39.4696 7.39532 38.7587 7.38596H38.1088V9.74312H36.4839V3.22152H39.3985C40.9117 3.22152 41.6023 3.83643 41.6023 5.17803C41.6023 6.08179 41.2163 6.63143 40.4344 6.85504C40.993 7.09723 41.2672 7.58174 41.4905 8.49473L41.8054 9.74312Z" fill="#FAFAFD"/>
<path d="M44.8217 6.37988L47.4113 3.22152H49.3511L46.6293 6.37988L49.5339 9.74312H47.5941L44.8217 6.37988ZM44.8217 9.74312H43.1969V3.22152H44.8217V9.74312Z" fill="#FAFAFD"/>
<path d="M59.8417 3.22152L57.6685 9.74312H56.6529L54.9367 4.52582L53.2203 9.74312H52.1946L50.0417 3.22152H51.0369L52.7328 8.72756L54.5304 3.22152H55.3428L57.1404 8.72756L58.8465 3.22152H59.8417Z" fill="#FAFAFD"/>
<path d="M64.1883 7.42327L62.8478 4.15324L61.4972 7.42327H64.1883ZM64.4423 8.04753H61.2432L60.5425 9.74312H59.5168L62.3502 3.22152H63.3352L66.1687 9.74312H65.143L64.4423 8.04753Z" fill="#FAFAFD"/>
<path d="M69.3373 6.41714C70.4544 6.41714 70.8707 6.01661 70.8707 5.1408C70.8707 4.28371 70.4544 3.87382 69.3373 3.87382H68.0677V6.41714H69.3373ZM72.0285 9.7432H71.084L70.8302 8.6252C70.5763 7.46066 70.2614 7.06936 69.3068 7.05077H68.0677V9.7432H67.1335V3.2216H69.652C71.1449 3.2216 71.8051 3.82715 71.8051 5.06631C71.8051 5.99789 71.3887 6.56625 70.5153 6.75254C71.2059 6.99486 71.5207 7.54451 71.7645 8.6252L72.0285 9.7432Z" fill="#FAFAFD"/>
<path d="M74.4355 3.91099V5.89545H77.5836V6.5383H74.4355V7.9358C74.4355 8.70905 74.8011 9.05368 75.6338 9.05368H78V9.7432H75.4916C74.0089 9.7432 73.5012 9.296 73.5012 8.01029V3.2216H78V3.91099H74.4355Z" fill="#FAFAFD"/>
<path d="M7.075 7.33358L5.82287 8.48239L5.82032 8.48421C5.8172 8.48603 5.81366 8.48707 5.80969 8.48707C5.79878 8.48707 5.78999 8.47901 5.78999 8.469C5.78999 8.46705 5.79028 8.46497 5.79098 8.46315L6.2674 6.83308C6.30793 6.71621 6.27775 6.58322 6.17671 6.49053L4.92458 5.34171L4.92246 5.33937C4.92047 5.33664 4.91934 5.33326 4.91934 5.32962C4.91934 5.31974 4.92813 5.31155 4.93904 5.31155C4.94131 5.31155 4.94343 5.31194 4.94542 5.31246L6.72229 5.74952C6.84968 5.78683 6.99479 5.75901 7.09583 5.66632L8.34795 4.51764L8.3505 4.51569C8.35348 4.51387 8.35717 4.51283 8.36113 4.51283C8.37204 4.51283 8.38083 4.52102 8.38083 4.53103C8.38083 4.53298 8.38055 4.53493 8.37984 4.53675L7.90342 6.16695C7.86289 6.2837 7.89307 6.41682 7.99411 6.50951L9.24624 7.65832L9.24836 7.66053C9.25035 7.66339 9.25148 7.66677 9.25148 7.67028C9.25148 7.68029 9.24269 7.68848 9.23178 7.68848C9.22952 7.68848 9.22739 7.68809 9.22541 7.68744L7.44854 7.25051C7.32114 7.2132 7.17603 7.24089 7.075 7.33358ZM14.1167 6.38029L11.1258 3.6365C11.0248 3.54381 10.8797 3.51612 10.7524 3.5533L8.78569 4.03716C8.78385 4.03768 8.78115 4.03781 8.77903 4.03781C8.76812 4.03781 8.75933 4.02975 8.75933 4.01974C8.75933 4.01337 8.76302 4.00778 8.7684 4.00453C8.98309 3.87349 9.30845 3.6365 10.0867 2.92254C10.1587 2.8565 10.1587 2.74925 10.0867 2.68321L7.21585 0.0495304C7.14387 -0.0165101 7.02696 -0.0165101 6.95497 0.0495304L3.96409 2.79332C3.86291 2.88601 3.83273 3.01913 3.8734 3.136L4.40083 4.94027C4.4014 4.94196 4.40154 4.94443 4.40154 4.94625C4.40154 4.95626 4.39276 4.96432 4.38184 4.96432C4.37476 4.96432 4.36867 4.96107 4.36512 4.956C4.22242 4.75905 3.96409 4.46057 3.18583 3.74674C3.1137 3.68057 2.99694 3.68057 2.92481 3.74674L0.0540971 6.38029C-0.0180324 6.44646 -0.0180324 6.55358 0.0540971 6.61975L3.04498 9.36353C3.14601 9.45622 3.29098 9.48391 3.41837 9.4466L5.38513 8.96274C5.38698 8.96222 5.38967 8.96209 5.39179 8.96209C5.40256 8.96209 5.41149 8.97028 5.41149 8.98029C5.41149 8.98666 5.40781 8.99225 5.40242 8.9955C5.18774 9.12641 4.86237 9.36353 4.08412 10.0774C4.01213 10.1435 4.01213 10.2507 4.08412 10.3168L6.95497 12.9504C7.02696 13.0165 7.14387 13.0165 7.21585 12.9504L10.2067 10.2066C10.3078 10.1139 10.338 9.9809 10.2974 9.86403L9.76999 8.05976C9.76942 8.05807 9.76928 8.0556 9.76928 8.05378C9.76928 8.04377 9.77806 8.03558 9.78898 8.03558C9.79592 8.03558 9.80216 8.03896 9.80556 8.04403C9.9484 8.24098 10.2067 8.53946 10.985 9.25329C11.057 9.31946 11.1739 9.31946 11.246 9.25329L14.1167 6.61975C14.1889 6.55358 14.1889 6.44646 14.1167 6.38029Z" fill="#FAFAFD"/>
</svg>
